<svg width="17" height="17" viewBox="0 0 17 17" fill="none" xmlns="http://www.w3.org/2000/svg">
<path fill-rule="evenodd" clip-rule="evenodd" d="M5.43275 1.41602H11.574C13.9753 1.41602 15.5832 3.10185 15.5832 5.60935V11.3971C15.5832 13.8976 13.9753 15.5827 11.574 15.5827H5.43275C3.0315 15.5827 1.4165 13.8976 1.4165 11.3971V5.60935C1.4165 3.10185 3.0315 1.41602 5.43275 1.41602ZM10.6319 10.6243C10.8728 10.3842 10.8728 9.99464 10.6319 9.75381L9.37109 8.49297L10.6319 7.23143C10.8728 6.99131 10.8728 6.59464 10.6319 6.35381C10.3911 6.11227 10.0015 6.11227 9.75359 6.35381L8.49984 7.61393L7.239 6.35381C6.99109 6.11227 6.6015 6.11227 6.36067 6.35381C6.11984 6.59464 6.11984 6.99131 6.36067 7.23143L7.6215 8.49297L6.36067 9.74672C6.11984 9.99464 6.11984 10.3842 6.36067 10.6243C6.48109 10.7448 6.644 10.8092 6.79984 10.8092C6.96275 10.8092 7.11859 10.7448 7.239 10.6243L8.49984 9.37131L9.76067 10.6243C9.88109 10.7526 10.0369 10.8092 10.1928 10.8092C10.3557 10.8092 10.5115 10.7448 10.6319 10.6243Z" fill="#D83D3D"/>
</svg>
