<svg width="20" height="20" viewBox="0 0 20 20" fill="none" xmlns="http://www.w3.org/2000/svg">
<path d="M9.5765 2.32422H6.46067C3.89817 2.32422 2.2915 4.13839 2.2915 6.70672V13.6351C2.2915 16.2034 3.89067 18.0176 6.46067 18.0176H13.814C16.3848 18.0176 17.984 16.2034 17.984 13.6351V10.2784" stroke="#64B6F5" stroke-linecap="round" stroke-linejoin="round"/>
<path fill-rule="evenodd" clip-rule="evenodd" d="M7.35604 9.10074L13.5835 2.87324C14.3594 2.09824 15.6169 2.09824 16.3927 2.87324L17.4069 3.88741C18.1827 4.66324 18.1827 5.92158 17.4069 6.69658L11.1494 12.9541C10.8102 13.2932 10.3502 13.4841 9.8702 13.4841H6.74854L6.82687 10.3341C6.83854 9.87074 7.0277 9.42908 7.35604 9.10074Z" stroke="#64B6F5" stroke-linecap="round" stroke-linejoin="round"/>
<path d="M12.6372 3.83496L16.4422 7.63996" stroke="#64B6F5" stroke-linecap="round" stroke-linejoin="round"/>
</svg>
