<svg width="30" height="30" viewBox="0 0 30 30" fill="none" xmlns="http://www.w3.org/2000/svg">
<path fill-rule="evenodd" clip-rule="evenodd" d="M9.798 4.8C6.762 4.8 4.8 6.8796 4.8 10.0992V19.9008C4.8 23.1204 6.762 25.2 9.798 25.2H20.1996C23.2368 25.2 25.2 23.1204 25.2 19.9008V10.0992C25.2 6.8796 23.2368 4.8 20.2008 4.8H9.798ZM20.1996 27H9.798C5.7312 27 3 24.1464 3 19.9008V10.0992C3 5.8536 5.7312 3 9.798 3H20.2008C24.2676 3 27 5.8536 27 10.0992V19.9008C27 24.1464 24.2676 27 20.1996 27Z" fill="#939698"/>
</svg>
