<svg width="30" height="29" viewBox="0 0 30 29" fill="none" xmlns="http://www.w3.org/2000/svg">
<path fill-rule="evenodd" clip-rule="evenodd" d="M20.1996 26.5H9.798C5.7312 26.5 3 23.6464 3 19.4008V9.5992C3 5.3536 5.7312 2.5 9.798 2.5H20.2008C24.2676 2.5 27 5.3536 27 9.5992V19.4008C27 23.6464 24.2676 26.5 20.1996 26.5Z" fill="white"/>
<path fill-rule="evenodd" clip-rule="evenodd" d="M13.5761 18.2478C13.3469 18.2478 13.1153 18.1602 12.9401 17.9838L10.0913 15.1362C9.73974 14.7846 9.73974 14.2158 10.0913 13.8642C10.4429 13.5126 11.0117 13.5126 11.3633 13.8642L13.5761 16.0746L18.6353 11.0166C18.9869 10.665 19.5557 10.665 19.9073 11.0166C20.2589 11.3682 20.2589 11.937 19.9073 12.2886L14.2121 17.9838C14.0369 18.1602 13.8065 18.2478 13.5761 18.2478Z" fill="#5A2C6D"/>
</svg>
