<svg width="17" height="17" viewBox="0 0 17 17" fill="none" xmlns="http://www.w3.org/2000/svg">
<path fill-rule="evenodd" clip-rule="evenodd" d="M5.43275 1.4165H11.574C13.9753 1.4165 15.5832 3.10234 15.5832 5.60984V11.3976C15.5832 13.8973 13.9753 15.5832 11.574 15.5832H5.43275C3.0315 15.5832 1.4165 13.8973 1.4165 11.3976V5.60984C1.4165 3.10234 3.0315 1.4165 5.43275 1.4165ZM8.09609 10.6178L11.4607 7.25317C11.7015 7.01234 11.7015 6.62275 11.4607 6.37484C11.2198 6.134 10.8232 6.134 10.5823 6.37484L7.65692 9.30025L6.41734 8.06067C6.1765 7.81984 5.77984 7.81984 5.539 8.06067C5.29817 8.3015 5.29817 8.69109 5.539 8.939L7.22484 10.6178C7.34525 10.7382 7.50109 10.7948 7.65692 10.7948C7.81984 10.7948 7.97567 10.7382 8.09609 10.6178Z" fill="#1C752C"/>
</svg>
