<svg width="14" height="14" viewBox="0 0 14 14" fill="none" xmlns="http://www.w3.org/2000/svg">
<path d="M6.66003 0.859375H4.16736C2.11736 0.859375 0.832031 2.31071 0.832031 4.36537V9.90804C0.832031 11.9627 2.11136 13.414 4.16736 13.414H10.05C12.1067 13.414 13.386 11.9627 13.386 9.90804V7.22271" stroke="#64B6F5" stroke-linecap="round" stroke-linejoin="round"/>
<path fill-rule="evenodd" clip-rule="evenodd" d="M4.88444 6.2805L9.86644 1.2985C10.4871 0.678496 11.4931 0.678496 12.1138 1.2985L12.9251 2.10983C13.5458 2.7305 13.5458 3.73716 12.9251 4.35716L7.9191 9.36316C7.64777 9.6345 7.27977 9.78716 6.89577 9.78716H4.39844L4.4611 7.26716C4.47044 6.8965 4.62177 6.54316 4.88444 6.2805Z" stroke="#64B6F5" stroke-linecap="round" stroke-linejoin="round"/>
<path d="M9.10938 2.06836L12.1534 5.11236" stroke="#64B6F5" stroke-linecap="round" stroke-linejoin="round"/>
</svg>
