<svg width="14" height="14" viewBox="0 0 14 14" fill="none" xmlns="http://www.w3.org/2000/svg">
<path d="M11.8825 5.31152C11.8825 5.31152 11.5205 9.80152 11.3105 11.6929C11.2105 12.5962 10.6525 13.1255 9.73854 13.1422C7.99921 13.1735 6.25788 13.1755 4.51921 13.1389C3.63987 13.1209 3.09121 12.5849 2.99321 11.6975C2.78188 9.78952 2.42188 5.31152 2.42188 5.31152" stroke="#D83D3D" stroke-width="1.5" stroke-linecap="round" stroke-linejoin="round"/>
<path d="M12.8053 3.15951H1.5" stroke="#D83D3D" stroke-width="1.5" stroke-linecap="round" stroke-linejoin="round"/>
<path d="M10.6284 3.1595C10.105 3.1595 9.65435 2.7895 9.55169 2.27683L9.38969 1.46616C9.28969 1.09216 8.95102 0.833496 8.56502 0.833496H5.74302C5.35702 0.833496 5.01835 1.09216 4.91835 1.46616L4.75635 2.27683C4.65369 2.7895 4.20302 3.1595 3.67969 3.1595" stroke="#D83D3D" stroke-width="1.5" stroke-linecap="round" stroke-linejoin="round"/>
</svg>
