<svg width="29" height="37" viewBox="0 0 29 37" fill="none" xmlns="http://www.w3.org/2000/svg">
<g filter="url(#filter0_d_16497_5815)">
<circle cx="18.5" cy="17.5" r="10.5" fill="white"/>
<circle cx="18.5" cy="17.5" r="10" stroke="#06406D"/>
</g>
<path fill-rule="evenodd" clip-rule="evenodd" d="M23.3177 18.4056C23.5227 18.5145 23.6809 18.6865 23.7922 18.8585C24.009 19.2139 23.9914 19.6496 23.7805 20.0337L23.3704 20.7217C23.1536 21.0886 22.7494 21.3179 22.3334 21.3179C22.1284 21.3179 21.8999 21.2605 21.7124 21.1459C21.5601 21.0484 21.3843 21.014 21.1968 21.014C20.6168 21.014 20.1306 21.4899 20.113 22.0574C20.113 22.7167 19.574 23.2326 18.9003 23.2326H18.1035C17.4239 23.2326 16.8849 22.7167 16.8849 22.0574C16.8732 21.4899 16.3869 21.014 15.8069 21.014C15.6136 21.014 15.4378 21.0484 15.2913 21.1459C15.1039 21.2605 14.8695 21.3179 14.6703 21.3179C14.2485 21.3179 13.8443 21.0886 13.6275 20.7217L13.2232 20.0337C13.0065 19.6611 12.9948 19.2139 13.2115 18.8585C13.3053 18.6865 13.481 18.5145 13.6802 18.4056C13.8443 18.3254 13.9497 18.1935 14.0493 18.0387C14.3422 17.5457 14.1665 16.8979 13.6685 16.6055C13.0885 16.2788 12.901 15.5507 13.235 14.9832L13.6275 14.3067C13.9673 13.7392 14.6938 13.5385 15.2796 13.871C15.7893 14.1462 16.4513 13.9627 16.7501 13.4755C16.8439 13.3149 16.8966 13.143 16.8849 12.971C16.8732 12.7474 16.9376 12.5353 17.0489 12.3633C17.2657 12.0079 17.6582 11.7786 18.0859 11.7671H18.912C19.3455 11.7671 19.738 12.0079 19.9548 12.3633C20.0603 12.5353 20.1306 12.7474 20.113 12.971C20.1013 13.143 20.154 13.3149 20.2477 13.4755C20.5465 13.9627 21.2086 14.1462 21.7241 13.871C22.3041 13.5385 23.0365 13.7392 23.3704 14.3067L23.7629 14.9832C24.1027 15.5507 23.9153 16.2788 23.3294 16.6055C22.8314 16.8979 22.6556 17.5457 22.9544 18.0387C23.0482 18.1935 23.1536 18.3254 23.3177 18.4056ZM16.8439 17.5056C16.8439 18.4056 17.5879 19.1222 18.5077 19.1222C19.4275 19.1222 20.154 18.4056 20.154 17.5056C20.154 16.6055 19.4275 15.8832 18.5077 15.8832C17.5879 15.8832 16.8439 16.6055 16.8439 17.5056Z" fill="#06406D"/>
<defs>
<filter id="filter0_d_16497_5815" x="0" y="0" width="37" height="37" filterUnits="userSpaceOnUse" color-interpolation-filters="sRGB">
<feFlood flood-opacity="0" result="BackgroundImageFix"/>
<feColorMatrix in="SourceAlpha" type="matrix" values="0 0 0 0 0 0 0 0 0 0 0 0 0 0 0 0 0 0 127 0" result="hardAlpha"/>
<feOffset dy="1"/>
<feGaussianBlur stdDeviation="4"/>
<feColorMatrix type="matrix" values="0 0 0 0 0.239216 0 0 0 0 0.243137 0 0 0 0 0.392157 0 0 0 0.1 0"/>
<feBlend mode="normal" in2="BackgroundImageFix" result="effect1_dropShadow_16497_5815"/>
<feBlend mode="normal" in="SourceGraphic" in2="effect1_dropShadow_16497_5815" result="shape"/>
</filter>
</defs>
</svg>
