<svg width="22" height="18" viewBox="0 0 22 18" fill="none" xmlns="http://www.w3.org/2000/svg">
<path d="M16.8867 7.89673C18.2817 7.70073 19.3557 6.50473 19.3587 5.05573C19.3587 3.62773 18.3177 2.44373 16.9527 2.21973" stroke="#6F7376" stroke-width="1.5" stroke-linecap="round" stroke-linejoin="round"/>
<path d="M18.7305 11.25C20.0815 11.452 21.0245 11.925 21.0245 12.9C21.0245 13.571 20.5805 14.007 19.8625 14.281" stroke="#6F7376" stroke-width="1.5" stroke-linecap="round" stroke-linejoin="round"/>
<path fill-rule="evenodd" clip-rule="evenodd" d="M10.8887 11.6641C7.67469 11.6641 4.92969 12.1511 4.92969 14.0961C4.92969 16.0401 7.65769 16.5411 10.8887 16.5411C14.1027 16.5411 16.8467 16.0591 16.8467 14.1131C16.8467 12.1671 14.1197 11.6641 10.8887 11.6641Z" stroke="#6F7376" stroke-width="1.5" stroke-linecap="round" stroke-linejoin="round"/>
<path fill-rule="evenodd" clip-rule="evenodd" d="M10.8854 8.888C12.9944 8.888 14.7044 7.179 14.7044 5.069C14.7044 2.96 12.9944 1.25 10.8854 1.25C8.77643 1.25 7.06643 2.96 7.06643 5.069C7.05843 7.171 8.75543 8.881 10.8574 8.888H10.8854Z" stroke="#6F7376" stroke-width="1.5" stroke-linecap="round" stroke-linejoin="round"/>
<path d="M4.88606 7.89673C3.49006 7.70073 2.41706 6.50473 2.41406 5.05573C2.41406 3.62773 3.45506 2.44373 4.82006 2.21973" stroke="#6F7376" stroke-width="1.5" stroke-linecap="round" stroke-linejoin="round"/>
<path d="M3.044 11.25C1.693 11.452 0.75 11.925 0.75 12.9C0.75 13.571 1.194 14.007 1.912 14.281" stroke="#6F7376" stroke-width="1.5" stroke-linecap="round" stroke-linejoin="round"/>
</svg>
