<svg width="16" height="13" viewBox="0 0 16 13" fill="none" xmlns="http://www.w3.org/2000/svg">
<path fill-rule="evenodd" clip-rule="evenodd" d="M3.63533 1.87601C3.30608 1.87601 3.09383 1.87601 3.05708 1.87751C2.50358 1.90076 1.99283 2.13551 1.62458 2.53751C1.28108 2.91326 1.10408 3.39326 1.12733 3.89126C1.12733 6.06101 1.12808 9.31751 1.13333 9.49601C1.21883 10.5348 2.19233 11.329 3.30683 11.2435C5.36933 11.2465 8.42483 11.2533 8.56808 11.248C9.11933 11.2255 9.63083 10.9915 9.99908 10.5903C10.3433 10.216 10.5203 9.73601 10.4986 9.24026C10.4978 9.23201 10.4978 9.22376 10.4978 9.21551C10.4986 7.07051 10.4986 3.81626 10.4933 3.64151C10.4086 2.59751 9.43058 1.79351 8.31008 1.88126C6.76058 1.87901 4.64633 1.87601 3.63533 1.87601ZM3.10958 12.376C1.52408 12.3768 0.14108 11.1618 0.0105803 9.56801C0.00833026 9.53726 0.000830257 9.44351 0.00308026 3.91676C-0.0329197 3.14351 0.24758 2.37551 0.79508 1.77776C1.36658 1.15376 2.15483 0.79001 3.01508 0.75326C3.11933 0.74576 6.72533 0.75476 8.26958 0.75776C9.95708 0.63926 11.4803 1.89176 11.6161 3.57251C11.6221 3.65426 11.6243 5.54801 11.6228 9.20426C11.6543 9.99626 11.3723 10.759 10.8278 11.3515C10.2556 11.9748 9.46658 12.337 8.60708 12.3723C8.50208 12.3798 4.89458 12.37 3.34808 12.367C3.26858 12.373 3.18908 12.376 3.10958 12.376Z" fill="white"/>
<path fill-rule="evenodd" clip-rule="evenodd" d="M14.1134 10.762C13.7752 10.762 13.4414 10.6457 13.1662 10.42L10.7054 8.39798C10.4654 8.20073 10.4309 7.84598 10.6282 7.60598C10.8247 7.36673 11.1794 7.33073 11.4194 7.52873L13.8794 9.55073C14.0452 9.68573 14.2117 9.63023 14.2762 9.59873C14.3407 9.56873 14.4899 9.47498 14.4899 9.26198L14.4989 3.75023C14.4997 3.53723 14.3497 3.44348 14.2852 3.41273C14.2214 3.38273 14.0527 3.32648 13.8884 3.46148L11.4187 5.48273C11.1772 5.67998 10.8239 5.64473 10.6274 5.40323C10.4302 5.16323 10.4662 4.80923 10.7062 4.61273L13.1759 2.59073C13.6289 2.21948 14.2387 2.14673 14.7674 2.39648C15.2962 2.64773 15.6247 3.16673 15.6239 3.75173L15.6149 9.26348C15.6142 9.84848 15.2849 10.3675 14.7569 10.6165C14.5499 10.7147 14.3309 10.762 14.1134 10.762Z" fill="white"/>
</svg>
