<svg width="24" height="24" viewBox="0 0 24 24" fill="none" xmlns="http://www.w3.org/2000/svg">
<path d="M12 1.66666C6.11999 1.66666 1.33333 5.85332 1.33333 11C1.33333 16.1467 6.11999 20.3333 12 20.3333C13.1001 20.3321 14.1948 20.1795 15.2533 19.88L18.94 22.2267C19.0406 22.2912 19.1568 22.3275 19.2763 22.3318C19.3958 22.336 19.5143 22.3081 19.6192 22.2508C19.7242 22.1936 19.8119 22.1091 19.873 22.0063C19.9341 21.9036 19.9665 21.7862 19.9667 21.6667V17.18C20.8008 16.3798 21.4665 15.4208 21.9244 14.3594C22.3824 13.2981 22.6234 12.1559 22.6333 11C22.6667 5.85332 17.88 1.66666 12 1.66666ZM18.86 16.4067C18.793 16.4688 18.7394 16.5441 18.7027 16.6278C18.666 16.7115 18.647 16.8019 18.6467 16.8933V20.4533L15.7267 18.5933C15.6452 18.5418 15.5536 18.5086 15.458 18.496C15.3625 18.4833 15.2654 18.4915 15.1733 18.52C14.1458 18.8391 13.0759 19.0009 12 19C6.85333 19 2.66666 15.4133 2.66666 11C2.66666 6.58666 6.85333 2.99999 12 2.99999C17.1467 2.99999 21.3333 6.58666 21.3333 11C21.3181 12.0234 21.0904 13.0324 20.6647 13.9632C20.2389 14.8939 19.6243 15.726 18.86 16.4067Z" fill="#607BE4"/>
<path d="M12.0001 13.7533C12.1769 13.7533 12.3465 13.6831 12.4715 13.5581C12.5966 13.433 12.6668 13.2635 12.6668 13.0867V5.65333C12.6668 5.47652 12.5966 5.30695 12.4715 5.18193C12.3465 5.0569 12.1769 4.98666 12.0001 4.98666C11.8233 4.98666 11.6537 5.0569 11.5287 5.18193C11.4037 5.30695 11.3335 5.47652 11.3335 5.65333V13.0733C11.3317 13.162 11.3476 13.2501 11.3803 13.3326C11.413 13.415 11.4619 13.4901 11.5239 13.5534C11.586 13.6167 11.6601 13.667 11.7419 13.7013C11.8237 13.7357 11.9114 13.7533 12.0001 13.7533Z" fill="#607BE4"/>
<path d="M11.9999 16.9133C12.4896 16.9133 12.8866 16.5163 12.8866 16.0267C12.8866 15.537 12.4896 15.14 11.9999 15.14C11.5103 15.14 11.1133 15.537 11.1133 16.0267C11.1133 16.5163 11.5103 16.9133 11.9999 16.9133Z" fill="#607BE4"/>
</svg>
