<svg width="118" height="118" viewBox="0 0 118 118" fill="none" xmlns="http://www.w3.org/2000/svg">
<path opacity="0.2" d="M99.5625 62.6875C99.5625 86.4281 65.2503 94.5724 59.7421 95.7266C59.2527 95.8297 58.7473 95.8297 58.2579 95.7266C52.7497 94.5724 18.4375 86.4281 18.4375 62.6875V35.7701C18.4375 35.0132 18.6705 34.2747 19.1047 33.6547C19.539 33.0348 20.1535 32.5635 20.8648 32.3048L57.7398 18.8961C58.5539 18.6001 59.4461 18.6001 60.2602 18.8961L97.1352 32.3048C97.8465 32.5635 98.461 33.0348 98.8953 33.6547C99.3295 34.2747 99.5625 35.0132 99.5625 35.7701V62.6875Z" fill="#2FCDFF"/>
<path d="M118 47.9375V59C117.996 62.9106 116.44 66.6598 113.675 69.425C110.91 72.1902 107.161 73.7456 103.25 73.75H100.855C97.8308 80.3783 91.9792 86.1948 83.5085 90.9005C73.8187 96.2834 63.4462 98.718 60.4985 99.3357C59.5103 99.5446 58.4893 99.5446 57.501 99.3357C54.5538 98.718 44.1813 96.2834 34.491 90.9005C26.0208 86.1944 20.1697 80.3787 17.1455 73.75H14.75C10.8394 73.7456 7.09024 72.1902 4.32503 69.425C1.55982 66.6598 0.00439201 62.9106 0 59L0 47.9375C0.00439201 44.0269 1.55982 40.2777 4.32503 37.5125C7.09024 34.7473 10.8394 33.1919 14.75 33.1875H15.2252C15.5989 32.19 16.1836 31.285 16.9395 30.5344C17.6954 29.7839 18.6045 29.2056 19.6046 28.839L56.4796 15.4303C58.1079 14.8393 59.8921 14.8393 61.5204 15.4303L98.3954 28.839C99.3955 29.2056 100.304 29.784 101.06 30.5345C101.816 31.2851 102.401 32.19 102.774 33.1875H103.25C107.161 33.1919 110.91 34.7473 113.675 37.5125C116.44 40.2777 117.996 44.0269 118 47.9375ZM15.0049 66.375C14.8359 65.1531 14.7508 63.921 14.75 62.6875V40.5625C12.7947 40.5647 10.9201 41.3424 9.53751 42.725C8.15491 44.1076 7.3772 45.9822 7.375 47.9375V59C7.3772 60.9553 8.15491 62.8299 9.53751 64.2125C10.9201 65.5951 12.7947 66.3728 14.75 66.375H15.0049ZM95.875 62.6875V35.7706L59 22.3615L22.125 35.7701V62.6875C22.125 83.7772 55.2388 91.3265 59.0143 92.1179C62.7617 91.3265 95.875 83.7772 95.875 62.6875ZM110.625 47.9375C110.623 45.9822 109.845 44.1076 108.462 42.725C107.08 41.3424 105.205 40.5647 103.25 40.5625V62.6875C103.249 63.921 103.164 65.1531 102.995 66.375H103.25C105.205 66.3728 107.08 65.5951 108.462 64.2125C109.845 62.8299 110.623 60.9553 110.625 59V47.9375Z" fill="#BDBDBD"/>
<rect x="38.35" y="45.2333" width="42.2833" height="8.85" rx="4.425" fill="#2FCDFF"/>
<rect x="38.35" y="59.9833" width="42.2833" height="8.84999" rx="4.425" fill="#2FCDFF"/>
</svg>
