<svg width="26" height="26" viewBox="0 0 26 26" fill="none" xmlns="http://www.w3.org/2000/svg">
<path d="M11.3751 4.8748C11.3751 3.92666 10.9984 3.01734 10.328 2.3469C9.65756 1.67646 8.74825 1.2998 7.8001 1.2998C6.85195 1.2998 5.94263 1.67646 5.27219 2.3469C4.60175 3.01734 4.2251 3.92666 4.2251 4.8748C4.2251 5.82295 4.60175 6.73227 5.27219 7.40271C5.94263 8.07315 6.85195 8.4498 7.8001 8.4498C8.74825 8.4498 9.65756 8.07315 10.328 7.40271C10.9984 6.73227 11.3751 5.82295 11.3751 4.8748ZM5.5251 4.8748C5.5251 4.57605 5.58394 4.28022 5.69827 4.0042C5.8126 3.72818 5.98018 3.47739 6.19143 3.26614C6.40268 3.05488 6.65348 2.88731 6.92949 2.77298C7.20551 2.65865 7.50134 2.5998 7.8001 2.5998C8.09886 2.5998 8.39469 2.65865 8.6707 2.77298C8.94672 2.88731 9.19751 3.05488 9.40877 3.26614C9.62002 3.47739 9.78759 3.72818 9.90192 4.0042C10.0163 4.28022 10.0751 4.57605 10.0751 4.8748C10.0751 5.47817 9.83541 6.05683 9.40877 6.48347C8.98212 6.91012 8.40347 7.1498 7.8001 7.1498C7.19673 7.1498 6.61808 6.91012 6.19143 6.48347C5.76478 6.05683 5.5251 5.47817 5.5251 4.8748Z" fill="#FF7676"/>
<path d="M3.2498 9.75H8.68771C8.47451 10.153 8.3159 10.5898 8.2223 11.05H3.2498C3.07741 11.05 2.91208 11.1185 2.79019 11.2404C2.66829 11.3623 2.5998 11.5276 2.5998 11.7V12.35C2.5998 13.988 4.02851 15.7482 6.62461 16.159C6.20601 16.445 5.8576 16.8259 5.6093 17.2692C2.8663 16.5269 1.2998 14.4131 1.2998 12.35V11.7C1.2998 11.1828 1.50525 10.6868 1.87095 10.3211C2.23664 9.95545 2.73263 9.75 3.2498 9.75Z" fill="#FF7676"/>
<path d="M10.242 9.7502C10.8972 8.9572 11.8891 8.4502 12.9993 8.4502C13.7779 8.44884 14.5355 8.70221 15.1565 9.17166C15.7776 9.6411 16.228 10.3008 16.4391 11.0502C16.6273 11.719 16.6167 12.4282 16.4086 13.0911C16.2006 13.754 15.804 14.3421 15.2674 14.7834C14.7308 15.2248 14.0773 15.5004 13.3867 15.5767C12.6961 15.6529 11.9982 15.5265 11.3782 15.2128C10.9009 14.9699 10.4842 14.6228 10.1591 14.1972C9.83389 13.7716 9.6085 13.2783 9.49955 12.7539C9.3906 12.2295 9.40087 11.6873 9.52961 11.1674C9.65835 10.6475 9.90227 10.1632 10.2433 9.7502H10.242ZM10.944 11.0502C10.816 11.3203 10.7424 11.6129 10.7275 11.9114C10.7125 12.21 10.7565 12.5085 10.857 12.79C10.9574 13.0715 11.1123 13.3305 11.3128 13.5521C11.5133 13.7738 11.7556 13.9538 12.0256 14.0818C12.2957 14.2098 12.5884 14.2834 12.8869 14.2984C13.1854 14.3133 13.4839 14.2693 13.7654 14.1689C14.047 14.0684 14.3059 13.9135 14.5276 13.713C14.7492 13.5125 14.9292 13.2703 15.0572 13.0002C15.3158 12.4546 15.3471 11.8286 15.1441 11.2599C14.9412 10.6913 14.5206 10.2265 13.975 9.96795C13.4294 9.70936 12.8034 9.67812 12.2347 9.88108C11.6661 10.084 11.2013 10.5046 10.9427 11.0502H10.944Z" fill="#FF7676"/>
<path d="M20.3907 17.2692C20.1431 16.8257 19.7954 16.446 19.3754 16.1603C21.9702 15.7482 23.4002 13.9867 23.4002 12.35V11.7C23.4002 11.5276 23.3317 11.3623 23.2098 11.2404C23.0879 11.1185 22.9226 11.05 22.7502 11.05H17.7777C17.6859 10.5967 17.5296 10.159 17.3136 9.75H22.7502C23.2674 9.75 23.7634 9.95545 24.1291 10.3211C24.4948 10.6868 24.7002 11.1828 24.7002 11.7V12.35C24.7002 14.4131 23.1324 16.5256 20.3907 17.2692Z" fill="#FF7676"/>
<path d="M18.8326 17.3804C18.4894 17.0814 18.0409 16.8994 17.5495 16.8994H8.44952C8.19325 16.8987 7.93937 16.9487 7.70248 17.0465C7.46558 17.1442 7.25034 17.2878 7.06913 17.469C6.88792 17.6502 6.74431 17.8655 6.64656 18.1024C6.5488 18.3393 6.49883 18.5932 6.49952 18.8494V19.4994C6.49952 22.0617 8.91752 24.6994 12.9995 24.6994C17.0815 24.6994 19.4995 22.0617 19.4995 19.4994V18.8494C19.4995 18.2644 19.2421 17.7392 18.8326 17.3804ZM7.79952 18.8494C7.79952 18.677 7.868 18.5117 7.9899 18.3898C8.1118 18.2679 8.27713 18.1994 8.44952 18.1994H17.5495C17.7219 18.1994 17.8872 18.2679 18.0091 18.3898C18.131 18.5117 18.1995 18.677 18.1995 18.8494V19.4994C18.1995 21.3688 16.3379 23.3994 12.9995 23.3994C9.66112 23.3994 7.79952 21.3688 7.79952 19.4994V18.8494Z" fill="#FF7676"/>
<path d="M18.1995 1.2998C19.1477 1.2998 20.057 1.67646 20.7274 2.3469C21.3979 3.01734 21.7745 3.92666 21.7745 4.8748C21.7745 5.82295 21.3979 6.73227 20.7274 7.40271C20.057 8.07315 19.1477 8.4498 18.1995 8.4498C17.2514 8.4498 16.342 8.07315 15.6716 7.40271C15.0012 6.73227 14.6245 5.82295 14.6245 4.8748C14.6245 3.92666 15.0012 3.01734 15.6716 2.3469C16.342 1.67646 17.2514 1.2998 18.1995 1.2998ZM18.1995 2.5998C17.5961 2.5998 17.0175 2.83949 16.5908 3.26614C16.1642 3.69278 15.9245 4.27144 15.9245 4.8748C15.9245 5.47817 16.1642 6.05683 16.5908 6.48347C17.0175 6.91012 17.5961 7.1498 18.1995 7.1498C18.8029 7.1498 19.3815 6.91012 19.8082 6.48347C20.2348 6.05683 20.4745 5.47817 20.4745 4.8748C20.4745 4.27144 20.2348 3.69278 19.8082 3.26614C19.3815 2.83949 18.8029 2.5998 18.1995 2.5998Z" fill="#FF7676"/>
</svg>
