<svg width="27" height="28" viewBox="0 0 27 28" fill="none" xmlns="http://www.w3.org/2000/svg">
<path d="M8.15625 2.52H7.875C8.02969 2.52 8.15625 2.394 8.15625 2.24V2.52H18.8438V2.24C18.8438 2.394 18.9703 2.52 19.125 2.52H18.8438V5.04H21.375V2.24C21.375 1.0045 20.366 0 19.125 0H7.875C6.63398 0 5.625 1.0045 5.625 2.24V5.04H8.15625V2.52ZM25.875 5.04H1.125C0.502734 5.04 0 5.5405 0 6.16V7.28C0 7.434 0.126562 7.56 0.28125 7.56H2.40469L3.27305 25.865C3.3293 27.0585 4.3207 28 5.51953 28H21.4805C22.6828 28 23.6707 27.062 23.727 25.865L24.5953 7.56H26.7188C26.8734 7.56 27 7.434 27 7.28V6.16C27 5.5405 26.4973 5.04 25.875 5.04ZM21.2098 25.48H5.79023L4.93945 7.56H22.0605L21.2098 25.48Z" fill="black"/>
</svg>
