<svg width="27" height="27" viewBox="0 0 27 27" fill="none" xmlns="http://www.w3.org/2000/svg">
<path d="M21.6844 7.84688L15.7781 1.94062C15.6094 1.77187 15.4406 1.6875 15.1875 1.6875H6.75C5.82187 1.6875 5.0625 2.44687 5.0625 3.375V23.625C5.0625 24.5531 5.82187 25.3125 6.75 25.3125H20.25C21.1781 25.3125 21.9375 24.5531 21.9375 23.625V8.4375C21.9375 8.18437 21.8531 8.01562 21.6844 7.84688ZM15.1875 3.7125L19.9125 8.4375H15.1875V3.7125ZM20.25 23.625H6.75V3.375H13.5V8.4375C13.5 9.36562 14.2594 10.125 15.1875 10.125H20.25V23.625Z" fill="#FFD74A"/>
<path d="M8.4375 18.5625H18.5625V20.25H8.4375V18.5625Z" fill="#FFD74A"/>
<path d="M8.4375 13.5H18.5625V15.1875H8.4375V13.5Z" fill="#FFD74A"/>
</svg>
