<svg width="32" height="32" viewBox="0 0 32 32" fill="none" xmlns="http://www.w3.org/2000/svg">
<path d="M23.1 2.76955L14.3418 11.5277C14.3415 11.528 14.3413 11.5282 14.341 11.5285C13.6793 12.1896 13.228 13.0317 13.0439 13.9489L13.0437 13.9501L12.2346 18C12.1364 18.4918 12.2904 19.0001 12.6451 19.3547C12.9998 19.7093 13.5082 19.8631 14 19.7647L18.0496 18.9541C18.9667 18.7707 19.8086 18.3207 20.4709 17.6584L29.2299 8.89945C29.6324 8.49696 29.9516 8.01913 30.1695 7.49324L28.7837 6.91922L30.1695 7.49324C30.3873 6.96735 30.4994 6.40371 30.4994 5.8345C30.4994 5.26529 30.3873 4.70165 30.1695 4.17576L28.804 4.74137L30.1695 4.17576C29.9516 3.64987 29.6324 3.17204 29.2299 2.76955L28.1692 3.83021L29.2299 2.76954C28.8274 2.36705 28.3495 2.04777 27.8237 1.82994C27.2978 1.61211 26.7341 1.5 26.1649 1.5C25.5957 1.5 25.0321 1.61211 24.5062 1.82994C23.9803 2.04777 23.5025 2.36705 23.1 2.76955Z" stroke="black" stroke-width="3" stroke-linecap="round" stroke-linejoin="round"/>
<mask id="path-2-outside-1" maskUnits="userSpaceOnUse" x="0" y="3.05859" width="29" height="29" fill="black">
<rect fill="white" y="3.05859" width="29" height="29"/>
<path d="M25.9412 21.3527V25.9409C25.9412 26.7522 25.6189 27.5302 25.0453 28.1039C24.4716 28.6775 23.6936 28.9998 22.8824 28.9998H6.05882C5.24757 28.9998 4.46955 28.6775 3.89591 28.1039C3.32227 27.5302 3 26.7522 3 25.9409V9.11742C3 8.30617 3.32227 7.52814 3.89591 6.9545C4.46955 6.38086 5.24757 6.05859 6.05882 6.05859H10.6471"/>
</mask>
<path d="M28.9412 21.3527C28.9412 19.6959 27.598 18.3527 25.9412 18.3527C24.2843 18.3527 22.9412 19.6959 22.9412 21.3527H28.9412ZM3 25.9409H0H3ZM6.05882 6.05859V3.05859V6.05859ZM10.6471 9.05859C12.3039 9.05859 13.6471 7.71545 13.6471 6.05859C13.6471 4.40174 12.3039 3.05859 10.6471 3.05859V9.05859ZM22.9412 21.3527V25.9409H28.9412V21.3527H22.9412ZM22.9412 25.9409C22.9412 25.9565 22.935 25.9715 22.9239 25.9825L27.1666 30.2252C28.3028 29.0889 28.9412 27.5478 28.9412 25.9409H22.9412ZM22.9239 25.9825C22.9129 25.9936 22.898 25.9998 22.8824 25.9998V31.9998C24.4893 31.9998 26.0303 31.3614 27.1666 30.2252L22.9239 25.9825ZM22.8824 25.9998H6.05882V31.9998H22.8824V25.9998ZM6.05882 25.9998C6.04322 25.9998 6.02826 25.9936 6.01723 25.9825L1.77459 30.2252C2.91084 31.3614 4.45192 31.9998 6.05882 31.9998V25.9998ZM6.01723 25.9825C6.0062 25.9715 6 25.9565 6 25.9409H0C0 27.5478 0.638339 29.0889 1.77459 30.2252L6.01723 25.9825ZM6 25.9409V9.11742H0V25.9409H6ZM6 9.11742C6 9.10182 6.0062 9.08685 6.01723 9.07582L1.77459 4.83318C0.638338 5.96943 0 7.51052 0 9.11742H6ZM6.01723 9.07582C6.02826 9.06479 6.04322 9.05859 6.05882 9.05859V3.05859C4.45192 3.05859 2.91084 3.69693 1.77459 4.83318L6.01723 9.07582ZM6.05882 9.05859H10.6471V3.05859H6.05882V9.05859Z" fill="black" mask="url(#path-2-outside-1)"/>
</svg>
