<svg width="32" height="32" viewBox="0 0 32 32" fill="none" xmlns="http://www.w3.org/2000/svg">
<path d="M13.7857 15.9998C14.2197 15.9998 14.5714 15.6481 14.5714 15.2141C14.5714 14.7802 14.2197 14.4284 13.7857 14.4284C13.3518 14.4284 13 14.7802 13 15.2141C13 15.6481 13.3518 15.9998 13.7857 15.9998Z" stroke="#8A9FC4" stroke-width="1.57143" stroke-linecap="round" stroke-linejoin="round"/>
<path d="M13 20.7141C15.6036 20.7141 17.7143 18.6034 17.7143 15.9998C17.7143 13.3962 15.6036 11.2855 13 11.2855C10.3964 11.2855 8.28572 13.3962 8.28572 15.9998C8.28572 18.6034 10.3964 20.7141 13 20.7141Z" stroke="#8A9FC4" stroke-width="1.57143" stroke-linecap="round" stroke-linejoin="round"/>
<path d="M2 16C2 16 5.92857 8.14288 13 8.14288C20.0714 8.14288 24 16 24 16C24 16 20.0714 23.8572 13 23.8572C5.92857 23.8572 2 16 2 16Z" stroke="#8A9FC4" stroke-width="1.57143" stroke-linecap="round" stroke-linejoin="round"/>
</svg>
