<svg width="56" height="56" viewBox="0 0 56 56" fill="none" xmlns="http://www.w3.org/2000/svg">
<path d="M36.1538 16H15.8462C15.3782 16 15 16.448 15 17C15 17.552 15.3782 18 15.8462 18H36.1538C36.6218 18 37 17.552 37 17C37 16.448 36.6218 16 36.1538 16Z" fill="black"/>
<path d="M40 27H16C15.447 27 15 27.448 15 28C15 28.552 15.447 29 16 29H40C40.553 29 41 28.552 41 28C41 27.448 40.553 27 40 27Z" fill="black"/>
<path d="M34.2308 38H15.7692C15.3438 38 15 38.448 15 39C15 39.552 15.3438 40 15.7692 40H34.2308C34.6562 40 35 39.552 35 39C35 38.448 34.6562 38 34.2308 38Z" fill="black"/>
</svg>
