<svg width="24" height="23" viewBox="0 0 24 23" fill="none" xmlns="http://www.w3.org/2000/svg">
<g clip-path="url(#clip0_28715_110803)">
<path d="M12.072 4.85255C13.4175 4.85255 14.5083 3.76627 14.5083 2.42628C14.5083 1.08628 13.4175 0 12.072 0C10.7265 0 9.63574 1.08628 9.63574 2.42628C9.63574 3.76627 10.7265 4.85255 12.072 4.85255Z" fill="#333333"/>
<path d="M19.9459 5.54525H4.19709C3.88556 5.54525 3.58679 5.66849 3.3665 5.88787C3.14622 6.10726 3.02246 6.4048 3.02246 6.71506C3.02246 7.02531 3.14622 7.32286 3.3665 7.54224C3.58679 7.76162 3.88556 7.88487 4.19709 7.88487H8.62937C8.92999 7.88487 9.28195 8.01875 9.4812 8.53476C9.71395 9.13397 9.59997 10.2912 9.4564 11.1876L9.26846 12.247C9.26881 12.2497 9.26852 12.2525 9.26762 12.2551C9.26671 12.2578 9.26521 12.2602 9.26324 12.2621L7.75797 20.7892C7.70338 21.0987 7.77412 21.4172 7.95471 21.6749C8.1353 21.9326 8.41104 22.1086 8.7216 22.1644C8.87514 22.1914 9.03255 22.1878 9.18468 22.1538C9.33681 22.1197 9.48063 22.0559 9.6078 21.9661C9.73497 21.8762 9.84296 21.7621 9.92548 21.6304C10.008 21.4986 10.0634 21.3519 10.0885 21.1986L11.1287 15.2716C11.1287 15.2716 11.4624 13.8639 12.0715 13.8639C12.6906 13.8639 13.0173 15.2716 13.0173 15.2716L14.0575 21.2038C14.0826 21.3584 14.1385 21.5065 14.2217 21.6394C14.3049 21.7723 14.4138 21.8874 14.5421 21.978C14.6704 22.0685 14.8156 22.1327 14.9691 22.1668C15.1226 22.201 15.2813 22.2043 15.4361 22.1767C15.5909 22.1491 15.7387 22.0911 15.8708 22.0061C16.0028 21.921 16.1166 21.8107 16.2054 21.6814C16.2942 21.5521 16.3562 21.4065 16.388 21.2531C16.4197 21.0997 16.4205 20.9416 16.3902 20.7879L14.8845 12.2608C14.8848 12.2581 14.8846 12.2554 14.8837 12.2527C14.8829 12.2501 14.8815 12.2477 14.8797 12.2457L14.6913 11.1863C14.5478 10.2899 14.4338 9.13267 14.6665 8.53346C14.8649 8.01875 15.2282 7.88357 15.5053 7.88357H19.9459C20.2574 7.88357 20.5562 7.76032 20.7765 7.54094C20.9967 7.32156 21.1205 7.02401 21.1205 6.71376C21.1205 6.4035 20.9967 6.10596 20.7765 5.88657C20.5562 5.66719 20.2574 5.54395 19.9459 5.54395V5.54525Z" fill="#333333"/>
</g>
<defs>
<clipPath id="clip0_28715_110803">
<rect width="22.2745" height="22.1831" fill="white" transform="translate(0.93457)"/>
</clipPath>
</defs>
</svg>