<svg width="111" height="22" viewBox="0 0 111 22" fill="none" xmlns="http://www.w3.org/2000/svg">
<mask id="path-1-outside-1_18472_17347" maskUnits="userSpaceOnUse" x="0" y="0" width="111" height="22" fill="black">
<rect fill="white" width="111" height="22"/>
<path fill-rule="evenodd" clip-rule="evenodd" d="M3.60685 1.09686C3.52672 1.14024 3.25281 1.26883 2.99814 1.38244C2.32056 1.68484 1.70835 2.29888 1.34693 3.0386L1.03291 3.68124L1.00601 12.0721C0.987552 17.8552 1.01125 20.5228 1.08225 20.6558C1.19978 20.8758 1.58694 20.9134 1.74691 20.7204C1.8217 20.6302 1.86123 18.1115 1.88017 12.2339L1.90708 3.87577L2.13436 3.43807C2.57261 2.59389 3.12586 2.19014 4.13038 1.98131C4.56465 1.89104 4.79912 1.89163 5.19143 1.98393C6.20934 2.2234 6.68868 2.63222 7.76905 4.18187C8.21109 4.81595 9.36305 6.47279 10.3289 7.86371C11.2947 9.25462 12.748 11.3337 13.5586 12.4839C14.3691 13.6341 15.2753 14.9253 15.5725 15.3532C18.8128 20.0213 19.1752 20.466 20.1049 20.9143C20.8242 21.261 22.3397 21.3521 23.1486 21.0969C24.2091 20.7625 24.9296 19.9937 25.2255 18.8805C25.4112 18.182 25.4319 1.79426 25.2474 1.60946C25.0919 1.45383 24.734 1.46103 24.6003 1.62249C24.5232 1.71548 24.4985 4.07565 24.5131 9.96311C24.5322 17.7406 24.5237 18.2018 24.3529 18.7002C23.968 19.8226 22.9074 20.4455 21.5718 20.3333C20.3222 20.2284 19.5806 19.6308 18.2983 17.6959C17.8344 16.9959 16.9723 15.7447 16.3825 14.9155C15.7927 14.0863 15.2356 13.2985 15.1445 13.1647C15.0535 13.031 14.8053 12.6808 14.5931 12.3866C14.3809 12.0924 13.8728 11.3702 13.4641 10.7817C13.0553 10.1932 12.6044 9.55284 12.4619 9.3585C12.3194 9.16416 12.0099 8.72646 11.7743 8.38583C9.96399 5.76946 7.75332 2.72851 7.3342 2.27826C6.87226 1.78191 6.62321 1.61626 5.6559 1.16174C5.30225 0.995508 3.87697 0.950377 3.60685 1.09686ZM54.7457 1.10367C54.7126 1.15717 54.5994 1.20094 54.4939 1.20094C54.2276 1.20094 53.4462 1.61422 53.0853 1.946C52.92 2.09793 52.6578 2.44109 52.5026 2.70857L52.2203 3.1949L52.1935 11.8621C52.1673 20.3518 52.1707 20.5341 52.3574 20.762C52.6019 21.0605 52.8631 20.9277 52.9706 20.4505C53.0116 20.2683 53.0188 16.7928 52.9865 12.727C52.9222 4.61724 52.958 3.72773 53.375 3.06622C53.8588 2.29878 54.7013 1.89931 55.5631 2.02868C56.5388 2.17516 57.0359 2.70448 57.8001 4.41074C57.9798 4.81196 58.273 5.46073 58.4518 5.85252C58.6304 6.24431 58.7766 6.58397 58.7766 6.60741C58.7766 6.63085 58.8601 6.8355 58.9622 7.06233C59.0643 7.28906 59.2998 7.8248 59.4856 8.25277C59.6714 8.68075 60.0031 9.43583 60.2227 9.93072C60.4423 10.4257 60.622 10.8492 60.622 10.872C60.622 10.8947 60.7791 11.2558 60.971 11.6743C61.4892 12.8043 61.6158 13.0941 63.2145 16.8122C64.4935 19.7868 64.8755 20.4055 65.7516 20.9212C66.1726 21.169 66.284 21.1889 67.2268 21.1843C68.3204 21.1789 68.4886 21.126 69.0882 20.5987C69.8092 19.9649 70.0803 19.4718 71.3045 16.5691C71.7896 15.4189 72.2271 14.3903 72.2768 14.2833C72.3265 14.1763 72.6992 13.3228 73.105 12.3866C73.5108 11.4504 73.932 10.4875 74.041 10.2467C74.3601 9.54175 74.4697 9.29392 75.0526 7.96097C75.3567 7.26552 75.7356 6.412 75.8946 6.06427C76.0537 5.71654 76.2701 5.21319 76.3757 4.94571C76.7786 3.92421 77.2638 3.02274 77.5827 2.70342C78.0811 2.20444 78.4097 2.07225 79.1691 2.06505C80.2807 2.05465 80.9751 2.60255 81.2138 3.67822C81.2879 4.01243 81.3167 6.66713 81.3069 12.2863C81.2992 16.755 81.3239 20.4889 81.3617 20.5841C81.5264 20.9972 82.1383 21.0249 82.2361 20.6235C82.2646 20.5067 82.2756 16.5594 82.2606 11.8516L82.2334 3.29217L82.0047 2.83152C81.7354 2.28877 81.1209 1.62609 80.7487 1.47688C79.5332 0.989964 79.0811 0.904564 78.7111 1.09171C78.6183 1.13868 78.3676 1.23255 78.1539 1.30044C77.1653 1.61442 76.4729 2.43535 75.6948 4.2162C75.5896 4.45694 74.9088 5.9994 74.1819 7.64379C73.4551 9.28818 72.8604 10.6522 72.8604 10.6747C72.8604 10.6973 72.7122 11.0369 72.531 11.4296C72.3499 11.8222 71.6444 13.4128 70.9633 14.9642C69.3517 18.6353 69.1067 19.1655 68.8647 19.5059C68.1669 20.4872 66.4227 20.6423 65.7858 19.7796C65.5778 19.4979 65.0034 18.3246 64.1667 16.4718C63.9372 15.9636 63.5976 15.2195 63.4123 14.8183C62.9661 13.8526 62.192 12.1279 61.2513 10.0036C61.1803 9.84309 61.0097 9.45878 60.8721 9.14957C60.7346 8.84046 60.622 8.57006 60.622 8.54876C60.622 8.52755 60.4744 8.18965 60.2939 7.79786C60.1135 7.40607 59.804 6.69164 59.6062 6.21017C58.842 4.35004 57.9295 2.62969 57.4294 2.10668C56.9337 1.58825 56.3094 1.20094 55.9694 1.20094C55.8635 1.20094 55.75 1.15717 55.717 1.10367C55.6839 1.05017 55.4654 1.0064 55.2313 1.0064C54.9972 1.0064 54.7787 1.05017 54.7457 1.10367ZM30.5604 1.48564C29.7846 1.67676 28.9728 2.44138 28.7724 3.16961C28.6884 3.47484 28.6658 5.6326 28.6866 11.3653C28.7148 19.1145 28.7158 19.1483 28.9236 19.537C29.189 20.0331 29.578 20.4227 30.0734 20.6884C30.4632 20.8974 30.4638 20.8974 39.5219 20.9242C44.5043 20.9389 48.7222 20.9144 48.895 20.8698C49.1151 20.813 49.2188 20.7232 49.241 20.5702C49.3171 20.0465 49.7612 20.0707 40.0915 20.0701C34.2641 20.0698 31.0177 20.0347 30.7837 19.9696C30.323 19.8415 29.817 19.2553 29.6602 18.6677C29.5763 18.3541 29.5405 17.2174 29.5405 14.8768V11.5339L29.759 11.4752C29.8793 11.443 34.2469 11.416 39.4651 11.4153C47.9594 11.414 48.9686 11.398 49.1052 11.2611C49.2896 11.0765 49.2938 11.0136 49.1364 10.8002C49.0239 10.6478 48.2968 10.6338 39.302 10.6114L29.5891 10.5872L29.5602 7.32874C29.5296 3.87032 29.5553 3.60819 29.9895 2.95106C30.4321 2.28128 29.8242 2.32193 39.7877 2.29606C44.7559 2.28322 48.9139 2.25083 49.0277 2.22418C49.2844 2.16407 49.3768 1.85165 49.2068 1.61879C49.0858 1.45305 48.6132 1.44332 39.9655 1.42903C34.953 1.42066 30.7206 1.44624 30.5604 1.48564ZM94.8603 1.45315C91.907 1.86459 90.8295 2.20162 89.3362 3.18099C87.246 4.55197 86.2534 5.98588 85.4214 8.83637C85.2261 9.50567 85.1409 12.088 85.2866 12.9258C85.8342 16.0747 87.9243 18.7694 90.7559 19.9772C92.3721 20.6665 94.5287 20.9799 97.6285 20.9758C99.9326 20.9728 101.173 20.8471 103.068 20.4244C105.565 19.8674 107.813 18.0937 108.973 15.7648C109.794 14.1177 109.999 13.2104 110 11.2194C110.001 9.74689 109.978 9.53426 109.725 8.64184C108.674 4.9389 105.838 2.34217 102.065 1.62726C101.484 1.51705 100.45 1.46813 98.2112 1.44459C96.5285 1.42698 95.0205 1.43078 94.8603 1.45315ZM99.4254 2.26941C101.694 2.4265 102.861 2.68562 104.318 3.35549C106.24 4.23897 107.782 5.97761 108.536 8.11154C108.805 8.87402 109.09 10.509 109.089 11.2917C109.089 12.5889 108.53 14.5866 107.833 15.7806C107.327 16.6491 106.137 17.9121 105.368 18.3988C104.355 19.0392 103.495 19.3966 102.107 19.7535C101.083 20.017 101.057 20.0185 97.7256 20.0184C95.3557 20.0184 94.204 19.9816 93.7918 19.8929C92.1709 19.5439 91.7876 19.432 91.0554 19.0945C88.4993 17.9163 86.8615 15.7776 86.2538 12.8243C86.1011 12.0827 86.1017 10.3871 86.2548 9.56588C86.8169 6.5509 88.7599 4.14685 91.4607 3.12448C92.7155 2.64943 93.4187 2.50042 95.2488 2.32155C96.8631 2.16368 97.7401 2.15279 99.4254 2.26941Z"/>
</mask>
<path fill-rule="evenodd" clip-rule="evenodd" d="M3.60685 1.09686C3.52672 1.14024 3.25281 1.26883 2.99814 1.38244C2.32056 1.68484 1.70835 2.29888 1.34693 3.0386L1.03291 3.68124L1.00601 12.0721C0.987552 17.8552 1.01125 20.5228 1.08225 20.6558C1.19978 20.8758 1.58694 20.9134 1.74691 20.7204C1.8217 20.6302 1.86123 18.1115 1.88017 12.2339L1.90708 3.87577L2.13436 3.43807C2.57261 2.59389 3.12586 2.19014 4.13038 1.98131C4.56465 1.89104 4.79912 1.89163 5.19143 1.98393C6.20934 2.2234 6.68868 2.63222 7.76905 4.18187C8.21109 4.81595 9.36305 6.47279 10.3289 7.86371C11.2947 9.25462 12.748 11.3337 13.5586 12.4839C14.3691 13.6341 15.2753 14.9253 15.5725 15.3532C18.8128 20.0213 19.1752 20.466 20.1049 20.9143C20.8242 21.261 22.3397 21.3521 23.1486 21.0969C24.2091 20.7625 24.9296 19.9937 25.2255 18.8805C25.4112 18.182 25.4319 1.79426 25.2474 1.60946C25.0919 1.45383 24.734 1.46103 24.6003 1.62249C24.5232 1.71548 24.4985 4.07565 24.5131 9.96311C24.5322 17.7406 24.5237 18.2018 24.3529 18.7002C23.968 19.8226 22.9074 20.4455 21.5718 20.3333C20.3222 20.2284 19.5806 19.6308 18.2983 17.6959C17.8344 16.9959 16.9723 15.7447 16.3825 14.9155C15.7927 14.0863 15.2356 13.2985 15.1445 13.1647C15.0535 13.031 14.8053 12.6808 14.5931 12.3866C14.3809 12.0924 13.8728 11.3702 13.4641 10.7817C13.0553 10.1932 12.6044 9.55284 12.4619 9.3585C12.3194 9.16416 12.0099 8.72646 11.7743 8.38583C9.96399 5.76946 7.75332 2.72851 7.3342 2.27826C6.87226 1.78191 6.62321 1.61626 5.6559 1.16174C5.30225 0.995508 3.87697 0.950377 3.60685 1.09686ZM54.7457 1.10367C54.7126 1.15717 54.5994 1.20094 54.4939 1.20094C54.2276 1.20094 53.4462 1.61422 53.0853 1.946C52.92 2.09793 52.6578 2.44109 52.5026 2.70857L52.2203 3.1949L52.1935 11.8621C52.1673 20.3518 52.1707 20.5341 52.3574 20.762C52.6019 21.0605 52.8631 20.9277 52.9706 20.4505C53.0116 20.2683 53.0188 16.7928 52.9865 12.727C52.9222 4.61724 52.958 3.72773 53.375 3.06622C53.8588 2.29878 54.7013 1.89931 55.5631 2.02868C56.5388 2.17516 57.0359 2.70448 57.8001 4.41074C57.9798 4.81196 58.273 5.46073 58.4518 5.85252C58.6304 6.24431 58.7766 6.58397 58.7766 6.60741C58.7766 6.63085 58.8601 6.8355 58.9622 7.06233C59.0643 7.28906 59.2998 7.8248 59.4856 8.25277C59.6714 8.68075 60.0031 9.43583 60.2227 9.93072C60.4423 10.4257 60.622 10.8492 60.622 10.872C60.622 10.8947 60.7791 11.2558 60.971 11.6743C61.4892 12.8043 61.6158 13.0941 63.2145 16.8122C64.4935 19.7868 64.8755 20.4055 65.7516 20.9212C66.1726 21.169 66.284 21.1889 67.2268 21.1843C68.3204 21.1789 68.4886 21.126 69.0882 20.5987C69.8092 19.9649 70.0803 19.4718 71.3045 16.5691C71.7896 15.4189 72.2271 14.3903 72.2768 14.2833C72.3265 14.1763 72.6992 13.3228 73.105 12.3866C73.5108 11.4504 73.932 10.4875 74.041 10.2467C74.3601 9.54175 74.4697 9.29392 75.0526 7.96097C75.3567 7.26552 75.7356 6.412 75.8946 6.06427C76.0537 5.71654 76.2701 5.21319 76.3757 4.94571C76.7786 3.92421 77.2638 3.02274 77.5827 2.70342C78.0811 2.20444 78.4097 2.07225 79.1691 2.06505C80.2807 2.05465 80.9751 2.60255 81.2138 3.67822C81.2879 4.01243 81.3167 6.66713 81.3069 12.2863C81.2992 16.755 81.3239 20.4889 81.3617 20.5841C81.5264 20.9972 82.1383 21.0249 82.2361 20.6235C82.2646 20.5067 82.2756 16.5594 82.2606 11.8516L82.2334 3.29217L82.0047 2.83152C81.7354 2.28877 81.1209 1.62609 80.7487 1.47688C79.5332 0.989964 79.0811 0.904564 78.7111 1.09171C78.6183 1.13868 78.3676 1.23255 78.1539 1.30044C77.1653 1.61442 76.4729 2.43535 75.6948 4.2162C75.5896 4.45694 74.9088 5.9994 74.1819 7.64379C73.4551 9.28818 72.8604 10.6522 72.8604 10.6747C72.8604 10.6973 72.7122 11.0369 72.531 11.4296C72.3499 11.8222 71.6444 13.4128 70.9633 14.9642C69.3517 18.6353 69.1067 19.1655 68.8647 19.5059C68.1669 20.4872 66.4227 20.6423 65.7858 19.7796C65.5778 19.4979 65.0034 18.3246 64.1667 16.4718C63.9372 15.9636 63.5976 15.2195 63.4123 14.8183C62.9661 13.8526 62.192 12.1279 61.2513 10.0036C61.1803 9.84309 61.0097 9.45878 60.8721 9.14957C60.7346 8.84046 60.622 8.57006 60.622 8.54876C60.622 8.52755 60.4744 8.18965 60.2939 7.79786C60.1135 7.40607 59.804 6.69164 59.6062 6.21017C58.842 4.35004 57.9295 2.62969 57.4294 2.10668C56.9337 1.58825 56.3094 1.20094 55.9694 1.20094C55.8635 1.20094 55.75 1.15717 55.717 1.10367C55.6839 1.05017 55.4654 1.0064 55.2313 1.0064C54.9972 1.0064 54.7787 1.05017 54.7457 1.10367ZM30.5604 1.48564C29.7846 1.67676 28.9728 2.44138 28.7724 3.16961C28.6884 3.47484 28.6658 5.6326 28.6866 11.3653C28.7148 19.1145 28.7158 19.1483 28.9236 19.537C29.189 20.0331 29.578 20.4227 30.0734 20.6884C30.4632 20.8974 30.4638 20.8974 39.5219 20.9242C44.5043 20.9389 48.7222 20.9144 48.895 20.8698C49.1151 20.813 49.2188 20.7232 49.241 20.5702C49.3171 20.0465 49.7612 20.0707 40.0915 20.0701C34.2641 20.0698 31.0177 20.0347 30.7837 19.9696C30.323 19.8415 29.817 19.2553 29.6602 18.6677C29.5763 18.3541 29.5405 17.2174 29.5405 14.8768V11.5339L29.759 11.4752C29.8793 11.443 34.2469 11.416 39.4651 11.4153C47.9594 11.414 48.9686 11.398 49.1052 11.2611C49.2896 11.0765 49.2938 11.0136 49.1364 10.8002C49.0239 10.6478 48.2968 10.6338 39.302 10.6114L29.5891 10.5872L29.5602 7.32874C29.5296 3.87032 29.5553 3.60819 29.9895 2.95106C30.4321 2.28128 29.8242 2.32193 39.7877 2.29606C44.7559 2.28322 48.9139 2.25083 49.0277 2.22418C49.2844 2.16407 49.3768 1.85165 49.2068 1.61879C49.0858 1.45305 48.6132 1.44332 39.9655 1.42903C34.953 1.42066 30.7206 1.44624 30.5604 1.48564ZM94.8603 1.45315C91.907 1.86459 90.8295 2.20162 89.3362 3.18099C87.246 4.55197 86.2534 5.98588 85.4214 8.83637C85.2261 9.50567 85.1409 12.088 85.2866 12.9258C85.8342 16.0747 87.9243 18.7694 90.7559 19.9772C92.3721 20.6665 94.5287 20.9799 97.6285 20.9758C99.9326 20.9728 101.173 20.8471 103.068 20.4244C105.565 19.8674 107.813 18.0937 108.973 15.7648C109.794 14.1177 109.999 13.2104 110 11.2194C110.001 9.74689 109.978 9.53426 109.725 8.64184C108.674 4.9389 105.838 2.34217 102.065 1.62726C101.484 1.51705 100.45 1.46813 98.2112 1.44459C96.5285 1.42698 95.0205 1.43078 94.8603 1.45315ZM99.4254 2.26941C101.694 2.4265 102.861 2.68562 104.318 3.35549C106.24 4.23897 107.782 5.97761 108.536 8.11154C108.805 8.87402 109.09 10.509 109.089 11.2917C109.089 12.5889 108.53 14.5866 107.833 15.7806C107.327 16.6491 106.137 17.9121 105.368 18.3988C104.355 19.0392 103.495 19.3966 102.107 19.7535C101.083 20.017 101.057 20.0185 97.7256 20.0184C95.3557 20.0184 94.204 19.9816 93.7918 19.8929C92.1709 19.5439 91.7876 19.432 91.0554 19.0945C88.4993 17.9163 86.8615 15.7776 86.2538 12.8243C86.1011 12.0827 86.1017 10.3871 86.2548 9.56588C86.8169 6.5509 88.7599 4.14685 91.4607 3.12448C92.7155 2.64943 93.4187 2.50042 95.2488 2.32155C96.8631 2.16368 97.7401 2.15279 99.4254 2.26941Z" fill="#3D3E64"/>
<path fill-rule="evenodd" clip-rule="evenodd" d="M3.60685 1.09686C3.52672 1.14024 3.25281 1.26883 2.99814 1.38244C2.32056 1.68484 1.70835 2.29888 1.34693 3.0386L1.03291 3.68124L1.00601 12.0721C0.987552 17.8552 1.01125 20.5228 1.08225 20.6558C1.19978 20.8758 1.58694 20.9134 1.74691 20.7204C1.8217 20.6302 1.86123 18.1115 1.88017 12.2339L1.90708 3.87577L2.13436 3.43807C2.57261 2.59389 3.12586 2.19014 4.13038 1.98131C4.56465 1.89104 4.79912 1.89163 5.19143 1.98393C6.20934 2.2234 6.68868 2.63222 7.76905 4.18187C8.21109 4.81595 9.36305 6.47279 10.3289 7.86371C11.2947 9.25462 12.748 11.3337 13.5586 12.4839C14.3691 13.6341 15.2753 14.9253 15.5725 15.3532C18.8128 20.0213 19.1752 20.466 20.1049 20.9143C20.8242 21.261 22.3397 21.3521 23.1486 21.0969C24.2091 20.7625 24.9296 19.9937 25.2255 18.8805C25.4112 18.182 25.4319 1.79426 25.2474 1.60946C25.0919 1.45383 24.734 1.46103 24.6003 1.62249C24.5232 1.71548 24.4985 4.07565 24.5131 9.96311C24.5322 17.7406 24.5237 18.2018 24.3529 18.7002C23.968 19.8226 22.9074 20.4455 21.5718 20.3333C20.3222 20.2284 19.5806 19.6308 18.2983 17.6959C17.8344 16.9959 16.9723 15.7447 16.3825 14.9155C15.7927 14.0863 15.2356 13.2985 15.1445 13.1647C15.0535 13.031 14.8053 12.6808 14.5931 12.3866C14.3809 12.0924 13.8728 11.3702 13.4641 10.7817C13.0553 10.1932 12.6044 9.55284 12.4619 9.3585C12.3194 9.16416 12.0099 8.72646 11.7743 8.38583C9.96399 5.76946 7.75332 2.72851 7.3342 2.27826C6.87226 1.78191 6.62321 1.61626 5.6559 1.16174C5.30225 0.995508 3.87697 0.950377 3.60685 1.09686ZM54.7457 1.10367C54.7126 1.15717 54.5994 1.20094 54.4939 1.20094C54.2276 1.20094 53.4462 1.61422 53.0853 1.946C52.92 2.09793 52.6578 2.44109 52.5026 2.70857L52.2203 3.1949L52.1935 11.8621C52.1673 20.3518 52.1707 20.5341 52.3574 20.762C52.6019 21.0605 52.8631 20.9277 52.9706 20.4505C53.0116 20.2683 53.0188 16.7928 52.9865 12.727C52.9222 4.61724 52.958 3.72773 53.375 3.06622C53.8588 2.29878 54.7013 1.89931 55.5631 2.02868C56.5388 2.17516 57.0359 2.70448 57.8001 4.41074C57.9798 4.81196 58.273 5.46073 58.4518 5.85252C58.6304 6.24431 58.7766 6.58397 58.7766 6.60741C58.7766 6.63085 58.8601 6.8355 58.9622 7.06233C59.0643 7.28906 59.2998 7.8248 59.4856 8.25277C59.6714 8.68075 60.0031 9.43583 60.2227 9.93072C60.4423 10.4257 60.622 10.8492 60.622 10.872C60.622 10.8947 60.7791 11.2558 60.971 11.6743C61.4892 12.8043 61.6158 13.0941 63.2145 16.8122C64.4935 19.7868 64.8755 20.4055 65.7516 20.9212C66.1726 21.169 66.284 21.1889 67.2268 21.1843C68.3204 21.1789 68.4886 21.126 69.0882 20.5987C69.8092 19.9649 70.0803 19.4718 71.3045 16.5691C71.7896 15.4189 72.2271 14.3903 72.2768 14.2833C72.3265 14.1763 72.6992 13.3228 73.105 12.3866C73.5108 11.4504 73.932 10.4875 74.041 10.2467C74.3601 9.54175 74.4697 9.29392 75.0526 7.96097C75.3567 7.26552 75.7356 6.412 75.8946 6.06427C76.0537 5.71654 76.2701 5.21319 76.3757 4.94571C76.7786 3.92421 77.2638 3.02274 77.5827 2.70342C78.0811 2.20444 78.4097 2.07225 79.1691 2.06505C80.2807 2.05465 80.9751 2.60255 81.2138 3.67822C81.2879 4.01243 81.3167 6.66713 81.3069 12.2863C81.2992 16.755 81.3239 20.4889 81.3617 20.5841C81.5264 20.9972 82.1383 21.0249 82.2361 20.6235C82.2646 20.5067 82.2756 16.5594 82.2606 11.8516L82.2334 3.29217L82.0047 2.83152C81.7354 2.28877 81.1209 1.62609 80.7487 1.47688C79.5332 0.989964 79.0811 0.904564 78.7111 1.09171C78.6183 1.13868 78.3676 1.23255 78.1539 1.30044C77.1653 1.61442 76.4729 2.43535 75.6948 4.2162C75.5896 4.45694 74.9088 5.9994 74.1819 7.64379C73.4551 9.28818 72.8604 10.6522 72.8604 10.6747C72.8604 10.6973 72.7122 11.0369 72.531 11.4296C72.3499 11.8222 71.6444 13.4128 70.9633 14.9642C69.3517 18.6353 69.1067 19.1655 68.8647 19.5059C68.1669 20.4872 66.4227 20.6423 65.7858 19.7796C65.5778 19.4979 65.0034 18.3246 64.1667 16.4718C63.9372 15.9636 63.5976 15.2195 63.4123 14.8183C62.9661 13.8526 62.192 12.1279 61.2513 10.0036C61.1803 9.84309 61.0097 9.45878 60.8721 9.14957C60.7346 8.84046 60.622 8.57006 60.622 8.54876C60.622 8.52755 60.4744 8.18965 60.2939 7.79786C60.1135 7.40607 59.804 6.69164 59.6062 6.21017C58.842 4.35004 57.9295 2.62969 57.4294 2.10668C56.9337 1.58825 56.3094 1.20094 55.9694 1.20094C55.8635 1.20094 55.75 1.15717 55.717 1.10367C55.6839 1.05017 55.4654 1.0064 55.2313 1.0064C54.9972 1.0064 54.7787 1.05017 54.7457 1.10367ZM30.5604 1.48564C29.7846 1.67676 28.9728 2.44138 28.7724 3.16961C28.6884 3.47484 28.6658 5.6326 28.6866 11.3653C28.7148 19.1145 28.7158 19.1483 28.9236 19.537C29.189 20.0331 29.578 20.4227 30.0734 20.6884C30.4632 20.8974 30.4638 20.8974 39.5219 20.9242C44.5043 20.9389 48.7222 20.9144 48.895 20.8698C49.1151 20.813 49.2188 20.7232 49.241 20.5702C49.3171 20.0465 49.7612 20.0707 40.0915 20.0701C34.2641 20.0698 31.0177 20.0347 30.7837 19.9696C30.323 19.8415 29.817 19.2553 29.6602 18.6677C29.5763 18.3541 29.5405 17.2174 29.5405 14.8768V11.5339L29.759 11.4752C29.8793 11.443 34.2469 11.416 39.4651 11.4153C47.9594 11.414 48.9686 11.398 49.1052 11.2611C49.2896 11.0765 49.2938 11.0136 49.1364 10.8002C49.0239 10.6478 48.2968 10.6338 39.302 10.6114L29.5891 10.5872L29.5602 7.32874C29.5296 3.87032 29.5553 3.60819 29.9895 2.95106C30.4321 2.28128 29.8242 2.32193 39.7877 2.29606C44.7559 2.28322 48.9139 2.25083 49.0277 2.22418C49.2844 2.16407 49.3768 1.85165 49.2068 1.61879C49.0858 1.45305 48.6132 1.44332 39.9655 1.42903C34.953 1.42066 30.7206 1.44624 30.5604 1.48564ZM94.8603 1.45315C91.907 1.86459 90.8295 2.20162 89.3362 3.18099C87.246 4.55197 86.2534 5.98588 85.4214 8.83637C85.2261 9.50567 85.1409 12.088 85.2866 12.9258C85.8342 16.0747 87.9243 18.7694 90.7559 19.9772C92.3721 20.6665 94.5287 20.9799 97.6285 20.9758C99.9326 20.9728 101.173 20.8471 103.068 20.4244C105.565 19.8674 107.813 18.0937 108.973 15.7648C109.794 14.1177 109.999 13.2104 110 11.2194C110.001 9.74689 109.978 9.53426 109.725 8.64184C108.674 4.9389 105.838 2.34217 102.065 1.62726C101.484 1.51705 100.45 1.46813 98.2112 1.44459C96.5285 1.42698 95.0205 1.43078 94.8603 1.45315ZM99.4254 2.26941C101.694 2.4265 102.861 2.68562 104.318 3.35549C106.24 4.23897 107.782 5.97761 108.536 8.11154C108.805 8.87402 109.09 10.509 109.089 11.2917C109.089 12.5889 108.53 14.5866 107.833 15.7806C107.327 16.6491 106.137 17.9121 105.368 18.3988C104.355 19.0392 103.495 19.3966 102.107 19.7535C101.083 20.017 101.057 20.0185 97.7256 20.0184C95.3557 20.0184 94.204 19.9816 93.7918 19.8929C92.1709 19.5439 91.7876 19.432 91.0554 19.0945C88.4993 17.9163 86.8615 15.7776 86.2538 12.8243C86.1011 12.0827 86.1017 10.3871 86.2548 9.56588C86.8169 6.5509 88.7599 4.14685 91.4607 3.12448C92.7155 2.64943 93.4187 2.50042 95.2488 2.32155C96.8631 2.16368 97.7401 2.15279 99.4254 2.26941Z" stroke="#3D3E64" stroke-width="0.778571" mask="url(#path-1-outside-1_18472_17347)"/>
</svg>
