<svg width="142" height="28" viewBox="0 0 142 28" fill="none" xmlns="http://www.w3.org/2000/svg">
<mask id="path-1-outside-1" maskUnits="userSpaceOnUse" x="0" y="0" width="142" height="28" fill="black">
<rect fill="white" width="142" height="28"/>
<path fill-rule="evenodd" clip-rule="evenodd" d="M4.34825 1.12441C4.24533 1.18013 3.89352 1.34528 3.56642 1.4912C2.69613 1.87961 1.90981 2.66829 1.4456 3.61838L1.04227 4.44379L1.00771 15.221C0.984012 22.6489 1.01445 26.0751 1.10565 26.246C1.2566 26.5285 1.75387 26.5768 1.95934 26.329C2.0554 26.2131 2.10617 22.9781 2.1305 15.4289L2.16506 4.69365L2.45698 4.13147C3.01987 3.0472 3.73047 2.52862 5.02067 2.26039C5.57844 2.14446 5.8796 2.14521 6.38348 2.26377C7.6909 2.57134 8.30656 3.09642 9.6942 5.0868C10.262 5.90122 11.7415 8.02927 12.9821 9.81577C14.2225 11.6023 16.0892 14.2726 17.1303 15.7499C18.1713 17.2272 19.3353 18.8857 19.7169 19.4354C23.8788 25.431 24.3443 26.0022 25.5384 26.578C26.4622 27.0233 28.4088 27.1403 29.4477 26.8126C30.8099 26.3831 31.7352 25.3956 32.1153 23.9658C32.3539 23.0686 32.3804 2.02015 32.1434 1.78279C31.9438 1.5829 31.4841 1.59214 31.3123 1.79953C31.2132 1.91896 31.1815 4.95038 31.2003 12.5123C31.2248 22.5016 31.214 23.0941 30.9945 23.7342C30.5001 25.1758 29.138 25.9758 27.4225 25.8318C25.8175 25.697 24.865 24.9295 23.218 22.4443C22.6222 21.5452 21.5149 19.9382 20.7574 18.8732C19.9999 17.8082 19.2843 16.7962 19.1673 16.6244C19.0504 16.4527 18.7316 16.0029 18.459 15.625C18.1864 15.2471 17.5339 14.3195 17.0089 13.5637C16.4839 12.8078 15.9047 11.9853 15.7217 11.7357C15.5387 11.4861 15.1412 10.9239 14.8385 10.4864C12.5134 7.12591 9.67399 3.2201 9.13568 2.6418C8.54235 2.00429 8.22248 1.79153 6.98005 1.20774C6.52583 0.994231 4.69519 0.936264 4.34825 1.12441ZM70.0311 1.13315C69.9887 1.20186 69.8433 1.25808 69.7078 1.25808C69.3657 1.25808 68.3621 1.78891 67.8986 2.21504C67.6863 2.41018 67.3494 2.85094 67.1501 3.19449L66.7875 3.81914L66.7531 14.9513C66.7194 25.8555 66.7238 26.0896 66.9637 26.3823C67.2777 26.7657 67.6132 26.5952 67.7513 25.9823C67.8039 25.7483 67.8131 21.2843 67.7717 16.0623C67.6891 5.64599 67.735 4.50351 68.2706 3.65386C68.892 2.66816 69.9741 2.15508 71.0811 2.32123C72.3342 2.50938 72.9727 3.18925 73.9543 5.38076C74.1851 5.8961 74.5617 6.72938 74.7912 7.2326C75.0207 7.73582 75.2084 8.17207 75.2084 8.20218C75.2084 8.23229 75.3157 8.49514 75.4468 8.78647C75.5779 9.07769 75.8805 9.7658 76.1191 10.3155C76.3578 10.8652 76.7838 11.835 77.0659 12.4707C77.3479 13.1064 77.5787 13.6504 77.5787 13.6796C77.5787 13.7088 77.7805 14.1726 78.027 14.7101C78.6925 16.1615 78.8551 16.5337 80.9085 21.3093C82.5513 25.1298 83.042 25.9245 84.1672 26.5868C84.7079 26.9052 84.851 26.9306 86.062 26.9248C87.4666 26.9179 87.6826 26.8499 88.4528 26.1727C89.3788 25.3585 89.727 24.7253 91.2994 20.997C91.9224 19.5197 92.4843 18.1986 92.5482 18.0611C92.6121 17.9237 93.0908 16.8275 93.612 15.625C94.1332 14.4226 94.6741 13.1858 94.8141 12.8765C95.2239 11.9711 95.3648 11.6527 96.1134 9.9407C96.504 9.04745 96.9907 7.95119 97.1949 7.50457C97.3993 7.05795 97.6772 6.41143 97.8128 6.06788C98.3303 4.75587 98.9536 3.59802 99.3631 3.18787C100.003 2.54698 100.425 2.3772 101.401 2.36796C102.828 2.35459 103.72 3.05832 104.027 4.43992C104.122 4.86918 104.159 8.27888 104.146 15.4962C104.137 21.2357 104.168 26.0317 104.217 26.1538C104.428 26.6845 105.214 26.72 105.34 26.2044C105.377 26.0545 105.391 20.9845 105.371 14.9379L105.336 3.94407L105.043 3.3524C104.697 2.6553 103.908 1.80415 103.429 1.61251C101.868 0.98711 101.288 0.877422 100.812 1.11779C100.693 1.17813 100.371 1.29868 100.097 1.38589C98.8269 1.78916 97.9377 2.84357 96.9383 5.1309C96.8032 5.44011 95.9288 7.42124 94.9951 9.5333C94.0616 11.6454 93.2977 13.3973 93.2977 13.4262C93.2977 13.4552 93.1074 13.8915 92.8747 14.3958C92.642 14.9 91.7359 16.943 90.8612 18.9356C88.7912 23.6509 88.4765 24.3319 88.1657 24.769C87.2694 26.0294 85.0292 26.2287 84.2112 25.1205C83.9439 24.7587 83.2063 23.2518 82.1315 20.8721C81.8367 20.2193 81.4006 19.2636 81.1625 18.7482C80.5894 17.5079 79.5953 15.2927 78.387 12.5642C78.2958 12.3581 78.0766 11.8645 77.9 11.4673C77.7233 11.0703 77.5787 10.723 77.5787 10.6957C77.5787 10.6684 77.3891 10.2344 77.1573 9.73119C76.9257 9.22798 76.5281 8.31037 76.2741 7.69197C75.2925 5.30281 74.1204 3.09318 73.4781 2.42143C72.8415 1.75555 72.0395 1.25808 71.6029 1.25808C71.4669 1.25808 71.3211 1.20186 71.2787 1.13315C71.2363 1.06444 70.9556 1.00822 70.6549 1.00822C70.3542 1.00822 70.0736 1.06444 70.0311 1.13315ZM38.9674 1.62375C37.971 1.86924 36.9283 2.85131 36.671 3.78666C36.5631 4.17869 36.5341 6.95013 36.5608 14.3132C36.597 24.2663 36.5982 24.3097 36.8652 24.809C37.206 25.4462 37.7057 25.9466 38.342 26.2879C38.8427 26.5564 38.8434 26.5564 50.4777 26.5907C56.8771 26.6096 62.2945 26.5781 62.5165 26.5209C62.7991 26.4479 62.9324 26.3326 62.961 26.1361C63.0586 25.4633 63.629 25.4945 51.2093 25.4937C43.7245 25.4933 39.5549 25.4482 39.2542 25.3647C38.6625 25.2001 38.0127 24.4472 37.8112 23.6925C37.7035 23.2897 37.6575 21.8296 37.6575 18.8235V14.5297L37.9382 14.4544C38.0927 14.4131 43.7025 14.3783 50.4047 14.3775C61.3148 14.3758 62.611 14.3552 62.7866 14.1794C63.0233 13.9423 63.0287 13.8615 62.8266 13.5874C62.6821 13.3916 61.7482 13.3736 50.1953 13.3449L37.7199 13.3138L37.6828 9.12866C37.6435 4.68665 37.6765 4.34997 38.2342 3.50594C38.8028 2.64568 38.0219 2.6979 50.819 2.66467C57.2002 2.64818 62.5408 2.60657 62.687 2.57234C63.0166 2.49514 63.1354 2.09386 62.917 1.79478C62.7616 1.5819 62.1545 1.56941 51.0475 1.55104C44.6093 1.5403 39.1733 1.57316 38.9674 1.62375ZM121.554 1.58203C117.761 2.11048 116.377 2.54336 114.459 3.80128C111.775 5.56216 110.5 7.40388 109.431 11.0651C109.18 11.9247 109.071 15.2415 109.258 16.3175C109.961 20.362 112.646 23.823 116.283 25.3744C118.359 26.2598 121.129 26.6623 125.11 26.6571C128.069 26.6532 129.663 26.4916 132.096 25.9488C135.304 25.2334 138.191 22.9553 139.681 19.9639C140.735 17.8484 140.998 16.683 141 14.1258C141.001 12.2345 140.972 11.9614 140.647 10.8152C139.296 6.05913 135.654 2.72388 130.808 1.80565C130.062 1.6641 128.734 1.60126 125.858 1.57103C123.697 1.54842 121.76 1.55329 121.554 1.58203ZM127.418 2.63044C130.332 2.8322 131.831 3.16501 133.702 4.0254C136.171 5.16014 138.151 7.39326 139.12 10.1341C139.466 11.1134 139.831 13.2134 139.831 14.2187C139.829 15.8849 139.111 18.4507 138.217 19.9843C137.566 21.0998 136.039 22.722 135.051 23.347C133.75 24.1696 132.645 24.6287 130.862 25.0871C129.546 25.4255 129.514 25.4275 125.235 25.4274C122.191 25.4272 120.712 25.38 120.182 25.2661C118.1 24.8178 117.608 24.6742 116.667 24.2407C113.384 22.7274 111.281 19.9804 110.5 16.1872C110.304 15.2347 110.305 13.0568 110.502 12.002C111.224 8.12959 113.719 5.04183 117.188 3.72869C118.8 3.11854 119.703 2.92714 122.053 2.6974C124.127 2.49464 125.253 2.48065 127.418 2.63044Z"/>
</mask>
<path fill-rule="evenodd" clip-rule="evenodd" d="M4.34825 1.12441C4.24533 1.18013 3.89352 1.34528 3.56642 1.4912C2.69613 1.87961 1.90981 2.66829 1.4456 3.61838L1.04227 4.44379L1.00771 15.221C0.984012 22.6489 1.01445 26.0751 1.10565 26.246C1.2566 26.5285 1.75387 26.5768 1.95934 26.329C2.0554 26.2131 2.10617 22.9781 2.1305 15.4289L2.16506 4.69365L2.45698 4.13147C3.01987 3.0472 3.73047 2.52862 5.02067 2.26039C5.57844 2.14446 5.8796 2.14521 6.38348 2.26377C7.6909 2.57134 8.30656 3.09642 9.6942 5.0868C10.262 5.90122 11.7415 8.02927 12.9821 9.81577C14.2225 11.6023 16.0892 14.2726 17.1303 15.7499C18.1713 17.2272 19.3353 18.8857 19.7169 19.4354C23.8788 25.431 24.3443 26.0022 25.5384 26.578C26.4622 27.0233 28.4088 27.1403 29.4477 26.8126C30.8099 26.3831 31.7352 25.3956 32.1153 23.9658C32.3539 23.0686 32.3804 2.02015 32.1434 1.78279C31.9438 1.5829 31.4841 1.59214 31.3123 1.79953C31.2132 1.91896 31.1815 4.95038 31.2003 12.5123C31.2248 22.5016 31.214 23.0941 30.9945 23.7342C30.5001 25.1758 29.138 25.9758 27.4225 25.8318C25.8175 25.697 24.865 24.9295 23.218 22.4443C22.6222 21.5452 21.5149 19.9382 20.7574 18.8732C19.9999 17.8082 19.2843 16.7962 19.1673 16.6244C19.0504 16.4527 18.7316 16.0029 18.459 15.625C18.1864 15.2471 17.5339 14.3195 17.0089 13.5637C16.4839 12.8078 15.9047 11.9853 15.7217 11.7357C15.5387 11.4861 15.1412 10.9239 14.8385 10.4864C12.5134 7.12591 9.67399 3.2201 9.13568 2.6418C8.54235 2.00429 8.22248 1.79153 6.98005 1.20774C6.52583 0.994231 4.69519 0.936264 4.34825 1.12441ZM70.0311 1.13315C69.9887 1.20186 69.8433 1.25808 69.7078 1.25808C69.3657 1.25808 68.3621 1.78891 67.8986 2.21504C67.6863 2.41018 67.3494 2.85094 67.1501 3.19449L66.7875 3.81914L66.7531 14.9513C66.7194 25.8555 66.7238 26.0896 66.9637 26.3823C67.2777 26.7657 67.6132 26.5952 67.7513 25.9823C67.8039 25.7483 67.8131 21.2843 67.7717 16.0623C67.6891 5.64599 67.735 4.50351 68.2706 3.65386C68.892 2.66816 69.9741 2.15508 71.0811 2.32123C72.3342 2.50938 72.9727 3.18925 73.9543 5.38076C74.1851 5.8961 74.5617 6.72938 74.7912 7.2326C75.0207 7.73582 75.2084 8.17207 75.2084 8.20218C75.2084 8.23229 75.3157 8.49514 75.4468 8.78647C75.5779 9.07769 75.8805 9.7658 76.1191 10.3155C76.3578 10.8652 76.7838 11.835 77.0659 12.4707C77.3479 13.1064 77.5787 13.6504 77.5787 13.6796C77.5787 13.7088 77.7805 14.1726 78.027 14.7101C78.6925 16.1615 78.8551 16.5337 80.9085 21.3093C82.5513 25.1298 83.042 25.9245 84.1672 26.5868C84.7079 26.9052 84.851 26.9306 86.062 26.9248C87.4666 26.9179 87.6826 26.8499 88.4528 26.1727C89.3788 25.3585 89.727 24.7253 91.2994 20.997C91.9224 19.5197 92.4843 18.1986 92.5482 18.0611C92.6121 17.9237 93.0908 16.8275 93.612 15.625C94.1332 14.4226 94.6741 13.1858 94.8141 12.8765C95.2239 11.9711 95.3648 11.6527 96.1134 9.9407C96.504 9.04745 96.9907 7.95119 97.1949 7.50457C97.3993 7.05795 97.6772 6.41143 97.8128 6.06788C98.3303 4.75587 98.9536 3.59802 99.3631 3.18787C100.003 2.54698 100.425 2.3772 101.401 2.36796C102.828 2.35459 103.72 3.05832 104.027 4.43992C104.122 4.86918 104.159 8.27888 104.146 15.4962C104.137 21.2357 104.168 26.0317 104.217 26.1538C104.428 26.6845 105.214 26.72 105.34 26.2044C105.377 26.0545 105.391 20.9845 105.371 14.9379L105.336 3.94407L105.043 3.3524C104.697 2.6553 103.908 1.80415 103.429 1.61251C101.868 0.98711 101.288 0.877422 100.812 1.11779C100.693 1.17813 100.371 1.29868 100.097 1.38589C98.8269 1.78916 97.9377 2.84357 96.9383 5.1309C96.8032 5.44011 95.9288 7.42124 94.9951 9.5333C94.0616 11.6454 93.2977 13.3973 93.2977 13.4262C93.2977 13.4552 93.1074 13.8915 92.8747 14.3958C92.642 14.9 91.7359 16.943 90.8612 18.9356C88.7912 23.6509 88.4765 24.3319 88.1657 24.769C87.2694 26.0294 85.0292 26.2287 84.2112 25.1205C83.9439 24.7587 83.2063 23.2518 82.1315 20.8721C81.8367 20.2193 81.4006 19.2636 81.1625 18.7482C80.5894 17.5079 79.5953 15.2927 78.387 12.5642C78.2958 12.3581 78.0766 11.8645 77.9 11.4673C77.7233 11.0703 77.5787 10.723 77.5787 10.6957C77.5787 10.6684 77.3891 10.2344 77.1573 9.73119C76.9257 9.22798 76.5281 8.31037 76.2741 7.69197C75.2925 5.30281 74.1204 3.09318 73.4781 2.42143C72.8415 1.75555 72.0395 1.25808 71.6029 1.25808C71.4669 1.25808 71.3211 1.20186 71.2787 1.13315C71.2363 1.06444 70.9556 1.00822 70.6549 1.00822C70.3542 1.00822 70.0736 1.06444 70.0311 1.13315ZM38.9674 1.62375C37.971 1.86924 36.9283 2.85131 36.671 3.78666C36.5631 4.17869 36.5341 6.95013 36.5608 14.3132C36.597 24.2663 36.5982 24.3097 36.8652 24.809C37.206 25.4462 37.7057 25.9466 38.342 26.2879C38.8427 26.5564 38.8434 26.5564 50.4777 26.5907C56.8771 26.6096 62.2945 26.5781 62.5165 26.5209C62.7991 26.4479 62.9324 26.3326 62.961 26.1361C63.0586 25.4633 63.629 25.4945 51.2093 25.4937C43.7245 25.4933 39.5549 25.4482 39.2542 25.3647C38.6625 25.2001 38.0127 24.4472 37.8112 23.6925C37.7035 23.2897 37.6575 21.8296 37.6575 18.8235V14.5297L37.9382 14.4544C38.0927 14.4131 43.7025 14.3783 50.4047 14.3775C61.3148 14.3758 62.611 14.3552 62.7866 14.1794C63.0233 13.9423 63.0287 13.8615 62.8266 13.5874C62.6821 13.3916 61.7482 13.3736 50.1953 13.3449L37.7199 13.3138L37.6828 9.12866C37.6435 4.68665 37.6765 4.34997 38.2342 3.50594C38.8028 2.64568 38.0219 2.6979 50.819 2.66467C57.2002 2.64818 62.5408 2.60657 62.687 2.57234C63.0166 2.49514 63.1354 2.09386 62.917 1.79478C62.7616 1.5819 62.1545 1.56941 51.0475 1.55104C44.6093 1.5403 39.1733 1.57316 38.9674 1.62375ZM121.554 1.58203C117.761 2.11048 116.377 2.54336 114.459 3.80128C111.775 5.56216 110.5 7.40388 109.431 11.0651C109.18 11.9247 109.071 15.2415 109.258 16.3175C109.961 20.362 112.646 23.823 116.283 25.3744C118.359 26.2598 121.129 26.6623 125.11 26.6571C128.069 26.6532 129.663 26.4916 132.096 25.9488C135.304 25.2334 138.191 22.9553 139.681 19.9639C140.735 17.8484 140.998 16.683 141 14.1258C141.001 12.2345 140.972 11.9614 140.647 10.8152C139.296 6.05913 135.654 2.72388 130.808 1.80565C130.062 1.6641 128.734 1.60126 125.858 1.57103C123.697 1.54842 121.76 1.55329 121.554 1.58203ZM127.418 2.63044C130.332 2.8322 131.831 3.16501 133.702 4.0254C136.171 5.16014 138.151 7.39326 139.12 10.1341C139.466 11.1134 139.831 13.2134 139.831 14.2187C139.829 15.8849 139.111 18.4507 138.217 19.9843C137.566 21.0998 136.039 22.722 135.051 23.347C133.75 24.1696 132.645 24.6287 130.862 25.0871C129.546 25.4255 129.514 25.4275 125.235 25.4274C122.191 25.4272 120.712 25.38 120.182 25.2661C118.1 24.8178 117.608 24.6742 116.667 24.2407C113.384 22.7274 111.281 19.9804 110.5 16.1872C110.304 15.2347 110.305 13.0568 110.502 12.002C111.224 8.12959 113.719 5.04183 117.188 3.72869C118.8 3.11854 119.703 2.92714 122.053 2.6974C124.127 2.49464 125.253 2.48065 127.418 2.63044Z" fill="#3D3E64"/>
<path fill-rule="evenodd" clip-rule="evenodd" d="M4.34825 1.12441C4.24533 1.18013 3.89352 1.34528 3.56642 1.4912C2.69613 1.87961 1.90981 2.66829 1.4456 3.61838L1.04227 4.44379L1.00771 15.221C0.984012 22.6489 1.01445 26.0751 1.10565 26.246C1.2566 26.5285 1.75387 26.5768 1.95934 26.329C2.0554 26.2131 2.10617 22.9781 2.1305 15.4289L2.16506 4.69365L2.45698 4.13147C3.01987 3.0472 3.73047 2.52862 5.02067 2.26039C5.57844 2.14446 5.8796 2.14521 6.38348 2.26377C7.6909 2.57134 8.30656 3.09642 9.6942 5.0868C10.262 5.90122 11.7415 8.02927 12.9821 9.81577C14.2225 11.6023 16.0892 14.2726 17.1303 15.7499C18.1713 17.2272 19.3353 18.8857 19.7169 19.4354C23.8788 25.431 24.3443 26.0022 25.5384 26.578C26.4622 27.0233 28.4088 27.1403 29.4477 26.8126C30.8099 26.3831 31.7352 25.3956 32.1153 23.9658C32.3539 23.0686 32.3804 2.02015 32.1434 1.78279C31.9438 1.5829 31.4841 1.59214 31.3123 1.79953C31.2132 1.91896 31.1815 4.95038 31.2003 12.5123C31.2248 22.5016 31.214 23.0941 30.9945 23.7342C30.5001 25.1758 29.138 25.9758 27.4225 25.8318C25.8175 25.697 24.865 24.9295 23.218 22.4443C22.6222 21.5452 21.5149 19.9382 20.7574 18.8732C19.9999 17.8082 19.2843 16.7962 19.1673 16.6244C19.0504 16.4527 18.7316 16.0029 18.459 15.625C18.1864 15.2471 17.5339 14.3195 17.0089 13.5637C16.4839 12.8078 15.9047 11.9853 15.7217 11.7357C15.5387 11.4861 15.1412 10.9239 14.8385 10.4864C12.5134 7.12591 9.67399 3.2201 9.13568 2.6418C8.54235 2.00429 8.22248 1.79153 6.98005 1.20774C6.52583 0.994231 4.69519 0.936264 4.34825 1.12441ZM70.0311 1.13315C69.9887 1.20186 69.8433 1.25808 69.7078 1.25808C69.3657 1.25808 68.3621 1.78891 67.8986 2.21504C67.6863 2.41018 67.3494 2.85094 67.1501 3.19449L66.7875 3.81914L66.7531 14.9513C66.7194 25.8555 66.7238 26.0896 66.9637 26.3823C67.2777 26.7657 67.6132 26.5952 67.7513 25.9823C67.8039 25.7483 67.8131 21.2843 67.7717 16.0623C67.6891 5.64599 67.735 4.50351 68.2706 3.65386C68.892 2.66816 69.9741 2.15508 71.0811 2.32123C72.3342 2.50938 72.9727 3.18925 73.9543 5.38076C74.1851 5.8961 74.5617 6.72938 74.7912 7.2326C75.0207 7.73582 75.2084 8.17207 75.2084 8.20218C75.2084 8.23229 75.3157 8.49514 75.4468 8.78647C75.5779 9.07769 75.8805 9.7658 76.1191 10.3155C76.3578 10.8652 76.7838 11.835 77.0659 12.4707C77.3479 13.1064 77.5787 13.6504 77.5787 13.6796C77.5787 13.7088 77.7805 14.1726 78.027 14.7101C78.6925 16.1615 78.8551 16.5337 80.9085 21.3093C82.5513 25.1298 83.042 25.9245 84.1672 26.5868C84.7079 26.9052 84.851 26.9306 86.062 26.9248C87.4666 26.9179 87.6826 26.8499 88.4528 26.1727C89.3788 25.3585 89.727 24.7253 91.2994 20.997C91.9224 19.5197 92.4843 18.1986 92.5482 18.0611C92.6121 17.9237 93.0908 16.8275 93.612 15.625C94.1332 14.4226 94.6741 13.1858 94.8141 12.8765C95.2239 11.9711 95.3648 11.6527 96.1134 9.9407C96.504 9.04745 96.9907 7.95119 97.1949 7.50457C97.3993 7.05795 97.6772 6.41143 97.8128 6.06788C98.3303 4.75587 98.9536 3.59802 99.3631 3.18787C100.003 2.54698 100.425 2.3772 101.401 2.36796C102.828 2.35459 103.72 3.05832 104.027 4.43992C104.122 4.86918 104.159 8.27888 104.146 15.4962C104.137 21.2357 104.168 26.0317 104.217 26.1538C104.428 26.6845 105.214 26.72 105.34 26.2044C105.377 26.0545 105.391 20.9845 105.371 14.9379L105.336 3.94407L105.043 3.3524C104.697 2.6553 103.908 1.80415 103.429 1.61251C101.868 0.98711 101.288 0.877422 100.812 1.11779C100.693 1.17813 100.371 1.29868 100.097 1.38589C98.8269 1.78916 97.9377 2.84357 96.9383 5.1309C96.8032 5.44011 95.9288 7.42124 94.9951 9.5333C94.0616 11.6454 93.2977 13.3973 93.2977 13.4262C93.2977 13.4552 93.1074 13.8915 92.8747 14.3958C92.642 14.9 91.7359 16.943 90.8612 18.9356C88.7912 23.6509 88.4765 24.3319 88.1657 24.769C87.2694 26.0294 85.0292 26.2287 84.2112 25.1205C83.9439 24.7587 83.2063 23.2518 82.1315 20.8721C81.8367 20.2193 81.4006 19.2636 81.1625 18.7482C80.5894 17.5079 79.5953 15.2927 78.387 12.5642C78.2958 12.3581 78.0766 11.8645 77.9 11.4673C77.7233 11.0703 77.5787 10.723 77.5787 10.6957C77.5787 10.6684 77.3891 10.2344 77.1573 9.73119C76.9257 9.22798 76.5281 8.31037 76.2741 7.69197C75.2925 5.30281 74.1204 3.09318 73.4781 2.42143C72.8415 1.75555 72.0395 1.25808 71.6029 1.25808C71.4669 1.25808 71.3211 1.20186 71.2787 1.13315C71.2363 1.06444 70.9556 1.00822 70.6549 1.00822C70.3542 1.00822 70.0736 1.06444 70.0311 1.13315ZM38.9674 1.62375C37.971 1.86924 36.9283 2.85131 36.671 3.78666C36.5631 4.17869 36.5341 6.95013 36.5608 14.3132C36.597 24.2663 36.5982 24.3097 36.8652 24.809C37.206 25.4462 37.7057 25.9466 38.342 26.2879C38.8427 26.5564 38.8434 26.5564 50.4777 26.5907C56.8771 26.6096 62.2945 26.5781 62.5165 26.5209C62.7991 26.4479 62.9324 26.3326 62.961 26.1361C63.0586 25.4633 63.629 25.4945 51.2093 25.4937C43.7245 25.4933 39.5549 25.4482 39.2542 25.3647C38.6625 25.2001 38.0127 24.4472 37.8112 23.6925C37.7035 23.2897 37.6575 21.8296 37.6575 18.8235V14.5297L37.9382 14.4544C38.0927 14.4131 43.7025 14.3783 50.4047 14.3775C61.3148 14.3758 62.611 14.3552 62.7866 14.1794C63.0233 13.9423 63.0287 13.8615 62.8266 13.5874C62.6821 13.3916 61.7482 13.3736 50.1953 13.3449L37.7199 13.3138L37.6828 9.12866C37.6435 4.68665 37.6765 4.34997 38.2342 3.50594C38.8028 2.64568 38.0219 2.6979 50.819 2.66467C57.2002 2.64818 62.5408 2.60657 62.687 2.57234C63.0166 2.49514 63.1354 2.09386 62.917 1.79478C62.7616 1.5819 62.1545 1.56941 51.0475 1.55104C44.6093 1.5403 39.1733 1.57316 38.9674 1.62375ZM121.554 1.58203C117.761 2.11048 116.377 2.54336 114.459 3.80128C111.775 5.56216 110.5 7.40388 109.431 11.0651C109.18 11.9247 109.071 15.2415 109.258 16.3175C109.961 20.362 112.646 23.823 116.283 25.3744C118.359 26.2598 121.129 26.6623 125.11 26.6571C128.069 26.6532 129.663 26.4916 132.096 25.9488C135.304 25.2334 138.191 22.9553 139.681 19.9639C140.735 17.8484 140.998 16.683 141 14.1258C141.001 12.2345 140.972 11.9614 140.647 10.8152C139.296 6.05913 135.654 2.72388 130.808 1.80565C130.062 1.6641 128.734 1.60126 125.858 1.57103C123.697 1.54842 121.76 1.55329 121.554 1.58203ZM127.418 2.63044C130.332 2.8322 131.831 3.16501 133.702 4.0254C136.171 5.16014 138.151 7.39326 139.12 10.1341C139.466 11.1134 139.831 13.2134 139.831 14.2187C139.829 15.8849 139.111 18.4507 138.217 19.9843C137.566 21.0998 136.039 22.722 135.051 23.347C133.75 24.1696 132.645 24.6287 130.862 25.0871C129.546 25.4255 129.514 25.4275 125.235 25.4274C122.191 25.4272 120.712 25.38 120.182 25.2661C118.1 24.8178 117.608 24.6742 116.667 24.2407C113.384 22.7274 111.281 19.9804 110.5 16.1872C110.304 15.2347 110.305 13.0568 110.502 12.002C111.224 8.12959 113.719 5.04183 117.188 3.72869C118.8 3.11854 119.703 2.92714 122.053 2.6974C124.127 2.49464 125.253 2.48065 127.418 2.63044Z" stroke="#3D3E64" mask="url(#path-1-outside-1)"/>
</svg>
