<svg width="40" height="52" viewBox="0 0 40 52" fill="none" xmlns="http://www.w3.org/2000/svg">
<path d="M34.1667 0.5H5.83335C4.27502 0.5 3.00002 1.775 3.00002 3.33333C3.00002 4.89167 4.27502 6.16667 5.83335 6.16667H34.1667C35.725 6.16667 37 4.89167 37 3.33333C37 1.775 35.725 0.5 34.1667 0.5ZM34.1667 9H5.83335C2.71669 9 0.166687 11.55 0.166687 14.6667V45.8333C0.166687 48.95 2.71669 51.5 5.83335 51.5H34.1667C37.2834 51.5 39.8334 48.95 39.8334 45.8333V14.6667C39.8334 11.55 37.2834 9 34.1667 9ZM27.0834 34.5H24.25V37.3333C24.25 39.685 22.3517 41.5833 20 41.5833C17.6484 41.5833 15.75 39.685 15.75 37.3333V34.5H12.9167C10.565 34.5 8.66669 32.6017 8.66669 30.25C8.66669 27.8983 10.565 26 12.9167 26H15.75V23.1667C15.75 20.815 17.6484 18.9167 20 18.9167C22.3517 18.9167 24.25 20.815 24.25 23.1667V26H27.0834C29.435 26 31.3334 27.8983 31.3334 30.25C31.3334 32.6017 29.435 34.5 27.0834 34.5Z" fill="#C6E5F6"/>
</svg>
