<svg width="131" height="14" viewBox="0 0 131 14" fill="none" xmlns="http://www.w3.org/2000/svg">
<path d="M78.808 2.953V6.574H84.554V8.444H78.808V13H76.598V1.1H85.285V2.953H78.808ZM90.404 3.82C91.7413 3.82 92.7613 4.143 93.464 4.789C94.178 5.42367 94.535 6.387 94.535 7.679V13H92.529V11.895C92.2683 12.2917 91.8943 12.5977 91.407 12.813C90.931 13.017 90.353 13.119 89.673 13.119C88.993 13.119 88.398 13.0057 87.888 12.779C87.378 12.541 86.9813 12.218 86.698 11.81C86.426 11.3907 86.29 10.9203 86.29 10.399C86.29 9.583 86.5903 8.93133 87.191 8.444C87.803 7.94533 88.7607 7.696 90.064 7.696H92.41V7.56C92.41 6.92533 92.2173 6.438 91.832 6.098C91.458 5.758 90.897 5.588 90.149 5.588C89.639 5.588 89.1347 5.66733 88.636 5.826C88.1487 5.98467 87.735 6.20567 87.395 6.489L86.562 4.942C87.038 4.57933 87.6103 4.30167 88.279 4.109C88.9477 3.91633 89.656 3.82 90.404 3.82ZM90.115 11.572C90.6477 11.572 91.118 11.453 91.526 11.215C91.9453 10.9657 92.24 10.6143 92.41 10.161V9.107H90.217C88.993 9.107 88.381 9.50933 88.381 10.314C88.381 10.6993 88.534 11.0053 88.84 11.232C89.146 11.4587 89.571 11.572 90.115 11.572ZM101.51 13.119C100.57 13.119 99.7252 12.9207 98.9772 12.524C98.2292 12.1273 97.6455 11.5777 97.2262 10.875C96.8068 10.161 96.5972 9.35633 96.5972 8.461C96.5972 7.56567 96.8068 6.76667 97.2262 6.064C97.6455 5.36133 98.2235 4.81167 98.9602 4.415C99.7082 4.01833 100.558 3.82 101.51 3.82C102.406 3.82 103.188 4.00133 103.856 4.364C104.536 4.72667 105.046 5.248 105.386 5.928L103.754 6.88C103.494 6.46067 103.165 6.149 102.768 5.945C102.383 5.72967 101.958 5.622 101.493 5.622C100.7 5.622 100.043 5.88267 99.5212 6.404C98.9998 6.914 98.7392 7.59967 98.7392 8.461C98.7392 9.32233 98.9942 10.0137 99.5042 10.535C100.026 11.045 100.689 11.3 101.493 11.3C101.958 11.3 102.383 11.198 102.768 10.994C103.165 10.7787 103.494 10.4613 103.754 10.042L105.386 10.994C105.035 11.674 104.519 12.201 103.839 12.575C103.171 12.9377 102.394 13.119 101.51 13.119ZM112.796 12.507C112.547 12.711 112.241 12.864 111.878 12.966C111.527 13.068 111.153 13.119 110.756 13.119C109.759 13.119 108.988 12.8583 108.444 12.337C107.9 11.8157 107.628 11.0563 107.628 10.059V5.69H106.132V3.99H107.628V1.916H109.753V3.99H112.184V5.69H109.753V10.008C109.753 10.45 109.861 10.79 110.076 11.028C110.292 11.2547 110.603 11.368 111.011 11.368C111.487 11.368 111.884 11.2433 112.201 10.994L112.796 12.507ZM118.326 13.119C117.408 13.119 116.58 12.9207 115.844 12.524C115.107 12.1273 114.529 11.5777 114.11 10.875C113.702 10.161 113.498 9.35633 113.498 8.461C113.498 7.56567 113.702 6.76667 114.11 6.064C114.529 5.36133 115.107 4.81167 115.844 4.415C116.58 4.01833 117.408 3.82 118.326 3.82C119.255 3.82 120.088 4.01833 120.825 4.415C121.561 4.81167 122.134 5.36133 122.542 6.064C122.961 6.76667 123.171 7.56567 123.171 8.461C123.171 9.35633 122.961 10.161 122.542 10.875C122.134 11.5777 121.561 12.1273 120.825 12.524C120.088 12.9207 119.255 13.119 118.326 13.119ZM118.326 11.3C119.108 11.3 119.754 11.0393 120.264 10.518C120.774 9.99667 121.029 9.311 121.029 8.461C121.029 7.611 120.774 6.92533 120.264 6.404C119.754 5.88267 119.108 5.622 118.326 5.622C117.544 5.622 116.898 5.88267 116.388 6.404C115.889 6.92533 115.64 7.611 115.64 8.461C115.64 9.311 115.889 9.99667 116.388 10.518C116.898 11.0393 117.544 11.3 118.326 11.3ZM127.226 5.248C127.838 4.296 128.914 3.82 130.456 3.82V5.843C130.274 5.809 130.11 5.792 129.963 5.792C129.135 5.792 128.489 6.03567 128.025 6.523C127.56 6.999 127.328 7.69033 127.328 8.597V13H125.203V3.922H127.226V5.248Z" fill="#3D3E64"/>
<mask id="path-2-outside-1" maskUnits="userSpaceOnUse" x="0" y="0" width="69" height="14" fill="black">
<rect fill="white" width="69" height="14"/>
<path fill-rule="evenodd" clip-rule="evenodd" d="M2.60238 1.05742C2.55312 1.08314 2.38476 1.15936 2.22821 1.22671C1.81172 1.40597 1.43541 1.76998 1.21325 2.20848L1.02023 2.58944L1.00369 7.56353C0.992348 10.9918 1.00692 12.5731 1.05056 12.652C1.1228 12.7824 1.36078 12.8047 1.45911 12.6903C1.50508 12.6368 1.52938 11.1437 1.54102 7.65948L1.55756 2.70476L1.69727 2.44529C1.96665 1.94486 2.30672 1.70552 2.92418 1.58172C3.19111 1.52821 3.33524 1.52856 3.57638 1.58328C4.20207 1.72524 4.49671 1.96758 5.16079 2.88622C5.43251 3.2621 6.14059 4.24428 6.73428 5.06882C7.32792 5.89335 8.22126 7.12583 8.71949 7.80766C9.21772 8.48949 9.77475 9.25493 9.95738 9.50863C11.9492 12.2758 12.1719 12.5395 12.7434 12.8052C13.1855 13.0108 14.1171 13.0647 14.6143 12.9135C15.2662 12.7153 15.709 12.2595 15.8909 11.5996C16.0051 11.1855 16.0178 1.47084 15.9043 1.36129C15.8088 1.26903 15.5888 1.2733 15.5066 1.36901C15.4592 1.42414 15.444 2.82325 15.453 6.31335C15.4647 10.9238 15.4595 11.1973 15.3545 11.4927C15.1179 12.158 14.466 12.5273 13.645 12.4608C12.8769 12.3986 12.4211 12.0444 11.6329 10.8974C11.3478 10.4824 10.8178 9.74071 10.4553 9.24916C10.0928 8.75761 9.75033 8.29056 9.69433 8.21128C9.63839 8.132 9.48584 7.92442 9.35539 7.75C9.22494 7.57558 8.91263 7.14746 8.6614 6.79861C8.41016 6.44977 8.13296 6.07014 8.04538 5.95493C7.95779 5.83973 7.76757 5.58026 7.62273 5.37834C6.50998 3.82734 5.15112 2.02466 4.8935 1.75776C4.60955 1.46352 4.45647 1.36532 3.86188 1.09588C3.6445 0.997337 2.76841 0.970583 2.60238 1.05742ZM34.0363 1.06146C34.016 1.09317 33.9464 1.11912 33.8816 1.11912C33.7179 1.11912 33.2376 1.36411 33.0158 1.56079C32.9141 1.65085 32.7529 1.85428 32.6575 2.01284L32.484 2.30114L32.4676 7.43904C32.4514 12.4718 32.4535 12.5798 32.5683 12.7149C32.7186 12.8919 32.8792 12.8132 32.9452 12.5303C32.9704 12.4223 32.9749 10.362 32.955 7.95181C32.9155 3.1443 32.9375 2.617 33.1938 2.22486C33.4912 1.76992 34.009 1.53311 34.5388 1.6098C35.1385 1.69664 35.4441 2.01042 35.9138 3.02189C36.0243 3.25974 36.2045 3.64433 36.3144 3.87658C36.4242 4.10884 36.514 4.31019 36.514 4.32408C36.514 4.33798 36.5654 4.45929 36.6281 4.59376C36.6909 4.72816 36.8357 5.04575 36.9499 5.29946C37.0641 5.55316 37.268 6.00077 37.403 6.29415C37.5379 6.58758 37.6484 6.83863 37.6484 6.85212C37.6484 6.86561 37.7449 7.07965 37.8629 7.32776C38.1814 7.99759 38.2592 8.16942 39.2419 10.3735C40.0281 12.1368 40.2629 12.5036 40.8015 12.8093C41.0602 12.9562 41.1287 12.968 41.7082 12.9653C42.3804 12.9621 42.4838 12.9307 42.8524 12.6182C43.2956 12.2424 43.4622 11.9501 44.2147 10.2294C44.5129 9.54755 44.7818 8.9378 44.8124 8.87437C44.8429 8.81094 45.072 8.30498 45.3214 7.75C45.5709 7.19503 45.8298 6.62419 45.8968 6.48148C46.0929 6.06357 46.1603 5.91665 46.5186 5.12648C46.7055 4.71421 46.9384 4.20824 47.0361 4.00211C47.1339 3.79598 47.267 3.49759 47.3318 3.33902C47.5795 2.73348 47.8778 2.19908 48.0738 2.00979C48.3801 1.71399 48.5821 1.63563 49.0489 1.63137C49.7322 1.6252 50.159 1.94999 50.3057 2.58765C50.3513 2.78577 50.369 4.35949 50.3629 7.69055C50.3582 10.3396 50.3734 12.5531 50.3967 12.6095C50.4979 12.8544 50.874 12.8708 50.9341 12.6328C50.9516 12.5636 50.9584 10.2236 50.9492 7.43287L50.9325 2.3588L50.7919 2.08573C50.6264 1.76398 50.2486 1.37115 50.0198 1.2827C49.2727 0.994051 48.9948 0.943425 48.7674 1.05436C48.7103 1.08221 48.5562 1.13785 48.4249 1.1781C47.8172 1.36423 47.3916 1.85088 46.9133 2.90657C46.8487 3.04928 46.4302 3.96365 45.9834 4.93845C45.5366 5.91325 45.1711 6.72181 45.1711 6.73519C45.1711 6.74856 45.0799 6.94991 44.9686 7.18269C44.8573 7.4154 44.4236 8.35831 44.005 9.27799C43.0144 11.4542 42.8637 11.7686 42.715 11.9703C42.2861 12.552 41.214 12.644 40.8225 12.1326C40.6946 11.9656 40.3416 11.2701 39.8272 10.1717C39.6861 9.87044 39.4774 9.42935 39.3635 9.1915C39.0892 8.61905 38.6134 7.59663 38.0352 6.33733C37.9916 6.2422 37.8867 6.01438 37.8021 5.83108C37.7176 5.64784 37.6484 5.48754 37.6484 5.47492C37.6484 5.46235 37.5576 5.26204 37.4467 5.02978C37.3358 4.79753 37.1456 4.37402 37.024 4.0886C36.5543 2.98591 35.9934 1.96608 35.6859 1.65604C35.3813 1.34872 34.9975 1.11912 34.7885 1.11912C34.7235 1.11912 34.6537 1.09317 34.6334 1.06146C34.6131 1.02974 34.4787 1.0038 34.3348 1.0038C34.191 1.0038 34.0566 1.02974 34.0363 1.06146ZM19.1701 1.28789C18.6933 1.40119 18.1943 1.85445 18.0711 2.28615C18.0195 2.46709 18.0056 3.74621 18.0184 7.14457C18.0357 11.7383 18.0363 11.7583 18.1641 11.9888C18.3272 12.2829 18.5663 12.5138 18.8708 12.6713C19.1104 12.7952 19.1108 12.7952 24.6786 12.8111C27.7412 12.8198 30.3338 12.8053 30.44 12.7789C30.5753 12.7452 30.6391 12.692 30.6527 12.6013C30.6995 12.2908 30.9725 12.3051 25.0287 12.3048C21.4467 12.3046 19.4513 12.2838 19.3074 12.2452C19.0242 12.1693 18.7132 11.8218 18.6168 11.4734C18.5653 11.2876 18.5432 10.6137 18.5432 9.22621V7.2445L18.6776 7.20973C18.7515 7.19064 21.4362 7.17461 24.6437 7.17421C29.865 7.17346 30.4853 7.16395 30.5693 7.08282C30.6826 6.97338 30.6852 6.93608 30.5884 6.80957C30.5193 6.71922 30.0724 6.71091 24.5435 6.69765L18.5731 6.68329L18.5554 4.75169C18.5366 2.70153 18.5523 2.54614 18.8192 2.15659C19.0913 1.75954 18.7176 1.78365 24.842 1.76831C27.8958 1.7607 30.4517 1.7415 30.5216 1.7257C30.6794 1.69006 30.7362 1.50486 30.6317 1.36682C30.5573 1.26857 30.2668 1.2628 24.9513 1.25433C21.8702 1.24937 19.2686 1.26453 19.1701 1.28789ZM58.6939 1.26863C56.8786 1.51253 56.2163 1.71232 55.2984 2.2929C54.0136 3.10561 53.4035 3.95564 52.892 5.64542C52.772 6.04217 52.7196 7.57299 52.8092 8.06961C53.1458 9.93629 54.4305 11.5337 56.1711 12.2497C57.1645 12.6584 58.4901 12.8441 60.3955 12.8417C61.8118 12.8399 62.5745 12.7654 63.7389 12.5148C65.2739 12.1846 66.6555 11.1332 67.3687 9.75259C67.8731 8.77618 67.9991 8.23832 68 7.05808C68.0006 6.18517 67.9867 6.05913 67.8309 5.5301C67.1847 3.33498 65.4417 1.79564 63.1226 1.37184C62.7653 1.30651 62.1299 1.27751 60.7537 1.26355C59.7193 1.25312 58.7924 1.25537 58.6939 1.26863ZM61.5 1.75251C62.8945 1.84563 63.6119 1.99924 64.5076 2.39634C65.689 2.92006 66.6367 3.95073 67.1002 5.21573C67.2658 5.66773 67.4406 6.63694 67.4403 7.10092C67.4398 7.86993 67.0961 9.05415 66.6681 9.76199C66.3567 10.2768 65.6258 11.0255 65.1528 11.314C64.5304 11.6937 64.0015 11.9056 63.1484 12.1171C62.5187 12.2733 62.503 12.2742 60.4552 12.2742C58.9985 12.2741 58.2905 12.2523 58.0372 12.1997C57.0408 11.9928 56.8052 11.9265 56.3552 11.7265C54.784 11.028 53.7773 9.7602 53.4037 8.00947C53.3099 7.56987 53.3102 6.56469 53.4043 6.07787C53.7499 4.29058 54.9442 2.86546 56.6043 2.2594C57.3756 1.97779 57.8078 1.88945 58.9327 1.78341C59.925 1.68983 60.4641 1.68337 61.5 1.75251Z"/>
</mask>
<path fill-rule="evenodd" clip-rule="evenodd" d="M2.60238 1.05742C2.55312 1.08314 2.38476 1.15936 2.22821 1.22671C1.81172 1.40597 1.43541 1.76998 1.21325 2.20848L1.02023 2.58944L1.00369 7.56353C0.992348 10.9918 1.00692 12.5731 1.05056 12.652C1.1228 12.7824 1.36078 12.8047 1.45911 12.6903C1.50508 12.6368 1.52938 11.1437 1.54102 7.65948L1.55756 2.70476L1.69727 2.44529C1.96665 1.94486 2.30672 1.70552 2.92418 1.58172C3.19111 1.52821 3.33524 1.52856 3.57638 1.58328C4.20207 1.72524 4.49671 1.96758 5.16079 2.88622C5.43251 3.2621 6.14059 4.24428 6.73428 5.06882C7.32792 5.89335 8.22126 7.12583 8.71949 7.80766C9.21772 8.48949 9.77475 9.25493 9.95738 9.50863C11.9492 12.2758 12.1719 12.5395 12.7434 12.8052C13.1855 13.0108 14.1171 13.0647 14.6143 12.9135C15.2662 12.7153 15.709 12.2595 15.8909 11.5996C16.0051 11.1855 16.0178 1.47084 15.9043 1.36129C15.8088 1.26903 15.5888 1.2733 15.5066 1.36901C15.4592 1.42414 15.444 2.82325 15.453 6.31335C15.4647 10.9238 15.4595 11.1973 15.3545 11.4927C15.1179 12.158 14.466 12.5273 13.645 12.4608C12.8769 12.3986 12.4211 12.0444 11.6329 10.8974C11.3478 10.4824 10.8178 9.74071 10.4553 9.24916C10.0928 8.75761 9.75033 8.29056 9.69433 8.21128C9.63839 8.132 9.48584 7.92442 9.35539 7.75C9.22494 7.57558 8.91263 7.14746 8.6614 6.79861C8.41016 6.44977 8.13296 6.07014 8.04538 5.95493C7.95779 5.83973 7.76757 5.58026 7.62273 5.37834C6.50998 3.82734 5.15112 2.02466 4.8935 1.75776C4.60955 1.46352 4.45647 1.36532 3.86188 1.09588C3.6445 0.997337 2.76841 0.970583 2.60238 1.05742ZM34.0363 1.06146C34.016 1.09317 33.9464 1.11912 33.8816 1.11912C33.7179 1.11912 33.2376 1.36411 33.0158 1.56079C32.9141 1.65085 32.7529 1.85428 32.6575 2.01284L32.484 2.30114L32.4676 7.43904C32.4514 12.4718 32.4535 12.5798 32.5683 12.7149C32.7186 12.8919 32.8792 12.8132 32.9452 12.5303C32.9704 12.4223 32.9749 10.362 32.955 7.95181C32.9155 3.1443 32.9375 2.617 33.1938 2.22486C33.4912 1.76992 34.009 1.53311 34.5388 1.6098C35.1385 1.69664 35.4441 2.01042 35.9138 3.02189C36.0243 3.25974 36.2045 3.64433 36.3144 3.87658C36.4242 4.10884 36.514 4.31019 36.514 4.32408C36.514 4.33798 36.5654 4.45929 36.6281 4.59376C36.6909 4.72816 36.8357 5.04575 36.9499 5.29946C37.0641 5.55316 37.268 6.00077 37.403 6.29415C37.5379 6.58758 37.6484 6.83863 37.6484 6.85212C37.6484 6.86561 37.7449 7.07965 37.8629 7.32776C38.1814 7.99759 38.2592 8.16942 39.2419 10.3735C40.0281 12.1368 40.2629 12.5036 40.8015 12.8093C41.0602 12.9562 41.1287 12.968 41.7082 12.9653C42.3804 12.9621 42.4838 12.9307 42.8524 12.6182C43.2956 12.2424 43.4622 11.9501 44.2147 10.2294C44.5129 9.54755 44.7818 8.9378 44.8124 8.87437C44.8429 8.81094 45.072 8.30498 45.3214 7.75C45.5709 7.19503 45.8298 6.62419 45.8968 6.48148C46.0929 6.06357 46.1603 5.91665 46.5186 5.12648C46.7055 4.71421 46.9384 4.20824 47.0361 4.00211C47.1339 3.79598 47.267 3.49759 47.3318 3.33902C47.5795 2.73348 47.8778 2.19908 48.0738 2.00979C48.3801 1.71399 48.5821 1.63563 49.0489 1.63137C49.7322 1.6252 50.159 1.94999 50.3057 2.58765C50.3513 2.78577 50.369 4.35949 50.3629 7.69055C50.3582 10.3396 50.3734 12.5531 50.3967 12.6095C50.4979 12.8544 50.874 12.8708 50.9341 12.6328C50.9516 12.5636 50.9584 10.2236 50.9492 7.43287L50.9325 2.3588L50.7919 2.08573C50.6264 1.76398 50.2486 1.37115 50.0198 1.2827C49.2727 0.994051 48.9948 0.943425 48.7674 1.05436C48.7103 1.08221 48.5562 1.13785 48.4249 1.1781C47.8172 1.36423 47.3916 1.85088 46.9133 2.90657C46.8487 3.04928 46.4302 3.96365 45.9834 4.93845C45.5366 5.91325 45.1711 6.72181 45.1711 6.73519C45.1711 6.74856 45.0799 6.94991 44.9686 7.18269C44.8573 7.4154 44.4236 8.35831 44.005 9.27799C43.0144 11.4542 42.8637 11.7686 42.715 11.9703C42.2861 12.552 41.214 12.644 40.8225 12.1326C40.6946 11.9656 40.3416 11.2701 39.8272 10.1717C39.6861 9.87044 39.4774 9.42935 39.3635 9.1915C39.0892 8.61905 38.6134 7.59663 38.0352 6.33733C37.9916 6.2422 37.8867 6.01438 37.8021 5.83108C37.7176 5.64784 37.6484 5.48754 37.6484 5.47492C37.6484 5.46235 37.5576 5.26204 37.4467 5.02978C37.3358 4.79753 37.1456 4.37402 37.024 4.0886C36.5543 2.98591 35.9934 1.96608 35.6859 1.65604C35.3813 1.34872 34.9975 1.11912 34.7885 1.11912C34.7235 1.11912 34.6537 1.09317 34.6334 1.06146C34.6131 1.02974 34.4787 1.0038 34.3348 1.0038C34.191 1.0038 34.0566 1.02974 34.0363 1.06146ZM19.1701 1.28789C18.6933 1.40119 18.1943 1.85445 18.0711 2.28615C18.0195 2.46709 18.0056 3.74621 18.0184 7.14457C18.0357 11.7383 18.0363 11.7583 18.1641 11.9888C18.3272 12.2829 18.5663 12.5138 18.8708 12.6713C19.1104 12.7952 19.1108 12.7952 24.6786 12.8111C27.7412 12.8198 30.3338 12.8053 30.44 12.7789C30.5753 12.7452 30.6391 12.692 30.6527 12.6013C30.6995 12.2908 30.9725 12.3051 25.0287 12.3048C21.4467 12.3046 19.4513 12.2838 19.3074 12.2452C19.0242 12.1693 18.7132 11.8218 18.6168 11.4734C18.5653 11.2876 18.5432 10.6137 18.5432 9.22621V7.2445L18.6776 7.20973C18.7515 7.19064 21.4362 7.17461 24.6437 7.17421C29.865 7.17346 30.4853 7.16395 30.5693 7.08282C30.6826 6.97338 30.6852 6.93608 30.5884 6.80957C30.5193 6.71922 30.0724 6.71091 24.5435 6.69765L18.5731 6.68329L18.5554 4.75169C18.5366 2.70153 18.5523 2.54614 18.8192 2.15659C19.0913 1.75954 18.7176 1.78365 24.842 1.76831C27.8958 1.7607 30.4517 1.7415 30.5216 1.7257C30.6794 1.69006 30.7362 1.50486 30.6317 1.36682C30.5573 1.26857 30.2668 1.2628 24.9513 1.25433C21.8702 1.24937 19.2686 1.26453 19.1701 1.28789ZM58.6939 1.26863C56.8786 1.51253 56.2163 1.71232 55.2984 2.2929C54.0136 3.10561 53.4035 3.95564 52.892 5.64542C52.772 6.04217 52.7196 7.57299 52.8092 8.06961C53.1458 9.93629 54.4305 11.5337 56.1711 12.2497C57.1645 12.6584 58.4901 12.8441 60.3955 12.8417C61.8118 12.8399 62.5745 12.7654 63.7389 12.5148C65.2739 12.1846 66.6555 11.1332 67.3687 9.75259C67.8731 8.77618 67.9991 8.23832 68 7.05808C68.0006 6.18517 67.9867 6.05913 67.8309 5.5301C67.1847 3.33498 65.4417 1.79564 63.1226 1.37184C62.7653 1.30651 62.1299 1.27751 60.7537 1.26355C59.7193 1.25312 58.7924 1.25537 58.6939 1.26863ZM61.5 1.75251C62.8945 1.84563 63.6119 1.99924 64.5076 2.39634C65.689 2.92006 66.6367 3.95073 67.1002 5.21573C67.2658 5.66773 67.4406 6.63694 67.4403 7.10092C67.4398 7.86993 67.0961 9.05415 66.6681 9.76199C66.3567 10.2768 65.6258 11.0255 65.1528 11.314C64.5304 11.6937 64.0015 11.9056 63.1484 12.1171C62.5187 12.2733 62.503 12.2742 60.4552 12.2742C58.9985 12.2741 58.2905 12.2523 58.0372 12.1997C57.0408 11.9928 56.8052 11.9265 56.3552 11.7265C54.784 11.028 53.7773 9.7602 53.4037 8.00947C53.3099 7.56987 53.3102 6.56469 53.4043 6.07787C53.7499 4.29058 54.9442 2.86546 56.6043 2.2594C57.3756 1.97779 57.8078 1.88945 58.9327 1.78341C59.925 1.68983 60.4641 1.68337 61.5 1.75251Z" fill="#3D3E64"/>
<path fill-rule="evenodd" clip-rule="evenodd" d="M2.60238 1.05742C2.55312 1.08314 2.38476 1.15936 2.22821 1.22671C1.81172 1.40597 1.43541 1.76998 1.21325 2.20848L1.02023 2.58944L1.00369 7.56353C0.992348 10.9918 1.00692 12.5731 1.05056 12.652C1.1228 12.7824 1.36078 12.8047 1.45911 12.6903C1.50508 12.6368 1.52938 11.1437 1.54102 7.65948L1.55756 2.70476L1.69727 2.44529C1.96665 1.94486 2.30672 1.70552 2.92418 1.58172C3.19111 1.52821 3.33524 1.52856 3.57638 1.58328C4.20207 1.72524 4.49671 1.96758 5.16079 2.88622C5.43251 3.2621 6.14059 4.24428 6.73428 5.06882C7.32792 5.89335 8.22126 7.12583 8.71949 7.80766C9.21772 8.48949 9.77475 9.25493 9.95738 9.50863C11.9492 12.2758 12.1719 12.5395 12.7434 12.8052C13.1855 13.0108 14.1171 13.0647 14.6143 12.9135C15.2662 12.7153 15.709 12.2595 15.8909 11.5996C16.0051 11.1855 16.0178 1.47084 15.9043 1.36129C15.8088 1.26903 15.5888 1.2733 15.5066 1.36901C15.4592 1.42414 15.444 2.82325 15.453 6.31335C15.4647 10.9238 15.4595 11.1973 15.3545 11.4927C15.1179 12.158 14.466 12.5273 13.645 12.4608C12.8769 12.3986 12.4211 12.0444 11.6329 10.8974C11.3478 10.4824 10.8178 9.74071 10.4553 9.24916C10.0928 8.75761 9.75033 8.29056 9.69433 8.21128C9.63839 8.132 9.48584 7.92442 9.35539 7.75C9.22494 7.57558 8.91263 7.14746 8.6614 6.79861C8.41016 6.44977 8.13296 6.07014 8.04538 5.95493C7.95779 5.83973 7.76757 5.58026 7.62273 5.37834C6.50998 3.82734 5.15112 2.02466 4.8935 1.75776C4.60955 1.46352 4.45647 1.36532 3.86188 1.09588C3.6445 0.997337 2.76841 0.970583 2.60238 1.05742ZM34.0363 1.06146C34.016 1.09317 33.9464 1.11912 33.8816 1.11912C33.7179 1.11912 33.2376 1.36411 33.0158 1.56079C32.9141 1.65085 32.7529 1.85428 32.6575 2.01284L32.484 2.30114L32.4676 7.43904C32.4514 12.4718 32.4535 12.5798 32.5683 12.7149C32.7186 12.8919 32.8792 12.8132 32.9452 12.5303C32.9704 12.4223 32.9749 10.362 32.955 7.95181C32.9155 3.1443 32.9375 2.617 33.1938 2.22486C33.4912 1.76992 34.009 1.53311 34.5388 1.6098C35.1385 1.69664 35.4441 2.01042 35.9138 3.02189C36.0243 3.25974 36.2045 3.64433 36.3144 3.87658C36.4242 4.10884 36.514 4.31019 36.514 4.32408C36.514 4.33798 36.5654 4.45929 36.6281 4.59376C36.6909 4.72816 36.8357 5.04575 36.9499 5.29946C37.0641 5.55316 37.268 6.00077 37.403 6.29415C37.5379 6.58758 37.6484 6.83863 37.6484 6.85212C37.6484 6.86561 37.7449 7.07965 37.8629 7.32776C38.1814 7.99759 38.2592 8.16942 39.2419 10.3735C40.0281 12.1368 40.2629 12.5036 40.8015 12.8093C41.0602 12.9562 41.1287 12.968 41.7082 12.9653C42.3804 12.9621 42.4838 12.9307 42.8524 12.6182C43.2956 12.2424 43.4622 11.9501 44.2147 10.2294C44.5129 9.54755 44.7818 8.9378 44.8124 8.87437C44.8429 8.81094 45.072 8.30498 45.3214 7.75C45.5709 7.19503 45.8298 6.62419 45.8968 6.48148C46.0929 6.06357 46.1603 5.91665 46.5186 5.12648C46.7055 4.71421 46.9384 4.20824 47.0361 4.00211C47.1339 3.79598 47.267 3.49759 47.3318 3.33902C47.5795 2.73348 47.8778 2.19908 48.0738 2.00979C48.3801 1.71399 48.5821 1.63563 49.0489 1.63137C49.7322 1.6252 50.159 1.94999 50.3057 2.58765C50.3513 2.78577 50.369 4.35949 50.3629 7.69055C50.3582 10.3396 50.3734 12.5531 50.3967 12.6095C50.4979 12.8544 50.874 12.8708 50.9341 12.6328C50.9516 12.5636 50.9584 10.2236 50.9492 7.43287L50.9325 2.3588L50.7919 2.08573C50.6264 1.76398 50.2486 1.37115 50.0198 1.2827C49.2727 0.994051 48.9948 0.943425 48.7674 1.05436C48.7103 1.08221 48.5562 1.13785 48.4249 1.1781C47.8172 1.36423 47.3916 1.85088 46.9133 2.90657C46.8487 3.04928 46.4302 3.96365 45.9834 4.93845C45.5366 5.91325 45.1711 6.72181 45.1711 6.73519C45.1711 6.74856 45.0799 6.94991 44.9686 7.18269C44.8573 7.4154 44.4236 8.35831 44.005 9.27799C43.0144 11.4542 42.8637 11.7686 42.715 11.9703C42.2861 12.552 41.214 12.644 40.8225 12.1326C40.6946 11.9656 40.3416 11.2701 39.8272 10.1717C39.6861 9.87044 39.4774 9.42935 39.3635 9.1915C39.0892 8.61905 38.6134 7.59663 38.0352 6.33733C37.9916 6.2422 37.8867 6.01438 37.8021 5.83108C37.7176 5.64784 37.6484 5.48754 37.6484 5.47492C37.6484 5.46235 37.5576 5.26204 37.4467 5.02978C37.3358 4.79753 37.1456 4.37402 37.024 4.0886C36.5543 2.98591 35.9934 1.96608 35.6859 1.65604C35.3813 1.34872 34.9975 1.11912 34.7885 1.11912C34.7235 1.11912 34.6537 1.09317 34.6334 1.06146C34.6131 1.02974 34.4787 1.0038 34.3348 1.0038C34.191 1.0038 34.0566 1.02974 34.0363 1.06146ZM19.1701 1.28789C18.6933 1.40119 18.1943 1.85445 18.0711 2.28615C18.0195 2.46709 18.0056 3.74621 18.0184 7.14457C18.0357 11.7383 18.0363 11.7583 18.1641 11.9888C18.3272 12.2829 18.5663 12.5138 18.8708 12.6713C19.1104 12.7952 19.1108 12.7952 24.6786 12.8111C27.7412 12.8198 30.3338 12.8053 30.44 12.7789C30.5753 12.7452 30.6391 12.692 30.6527 12.6013C30.6995 12.2908 30.9725 12.3051 25.0287 12.3048C21.4467 12.3046 19.4513 12.2838 19.3074 12.2452C19.0242 12.1693 18.7132 11.8218 18.6168 11.4734C18.5653 11.2876 18.5432 10.6137 18.5432 9.22621V7.2445L18.6776 7.20973C18.7515 7.19064 21.4362 7.17461 24.6437 7.17421C29.865 7.17346 30.4853 7.16395 30.5693 7.08282C30.6826 6.97338 30.6852 6.93608 30.5884 6.80957C30.5193 6.71922 30.0724 6.71091 24.5435 6.69765L18.5731 6.68329L18.5554 4.75169C18.5366 2.70153 18.5523 2.54614 18.8192 2.15659C19.0913 1.75954 18.7176 1.78365 24.842 1.76831C27.8958 1.7607 30.4517 1.7415 30.5216 1.7257C30.6794 1.69006 30.7362 1.50486 30.6317 1.36682C30.5573 1.26857 30.2668 1.2628 24.9513 1.25433C21.8702 1.24937 19.2686 1.26453 19.1701 1.28789ZM58.6939 1.26863C56.8786 1.51253 56.2163 1.71232 55.2984 2.2929C54.0136 3.10561 53.4035 3.95564 52.892 5.64542C52.772 6.04217 52.7196 7.57299 52.8092 8.06961C53.1458 9.93629 54.4305 11.5337 56.1711 12.2497C57.1645 12.6584 58.4901 12.8441 60.3955 12.8417C61.8118 12.8399 62.5745 12.7654 63.7389 12.5148C65.2739 12.1846 66.6555 11.1332 67.3687 9.75259C67.8731 8.77618 67.9991 8.23832 68 7.05808C68.0006 6.18517 67.9867 6.05913 67.8309 5.5301C67.1847 3.33498 65.4417 1.79564 63.1226 1.37184C62.7653 1.30651 62.1299 1.27751 60.7537 1.26355C59.7193 1.25312 58.7924 1.25537 58.6939 1.26863ZM61.5 1.75251C62.8945 1.84563 63.6119 1.99924 64.5076 2.39634C65.689 2.92006 66.6367 3.95073 67.1002 5.21573C67.2658 5.66773 67.4406 6.63694 67.4403 7.10092C67.4398 7.86993 67.0961 9.05415 66.6681 9.76199C66.3567 10.2768 65.6258 11.0255 65.1528 11.314C64.5304 11.6937 64.0015 11.9056 63.1484 12.1171C62.5187 12.2733 62.503 12.2742 60.4552 12.2742C58.9985 12.2741 58.2905 12.2523 58.0372 12.1997C57.0408 11.9928 56.8052 11.9265 56.3552 11.7265C54.784 11.028 53.7773 9.7602 53.4037 8.00947C53.3099 7.56987 53.3102 6.56469 53.4043 6.07787C53.7499 4.29058 54.9442 2.86546 56.6043 2.2594C57.3756 1.97779 57.8078 1.88945 58.9327 1.78341C59.925 1.68983 60.4641 1.68337 61.5 1.75251Z" stroke="#3D3E64" mask="url(#path-2-outside-1)"/>
</svg>
