<svg width="121" height="121" viewBox="0 0 121 121" fill="none" xmlns="http://www.w3.org/2000/svg">
<path d="M79.6666 30.25V31.25H80.6666H100.833C105.827 31.25 109.917 35.3398 109.917 40.3333V100.833C109.917 105.827 105.827 109.917 100.833 109.917H20.1666C15.1731 109.917 11.0833 105.827 11.0833 100.833V40.3333C11.0833 35.3398 15.1731 31.25 20.1666 31.25H40.3333H41.3333V30.25V20.1667C41.3333 15.1731 45.4231 11.0833 50.4166 11.0833H70.5833C75.5769 11.0833 79.6666 15.1731 79.6666 20.1667V30.25ZM50.4166 19.1667H49.4166V20.1667V30.25V31.25H50.4166H70.5833H71.5833V30.25V20.1667V19.1667H70.5833H50.4166ZM100.833 101.833H101.833V100.833V40.3333V39.3333H100.833H20.1666H19.1666V40.3333V100.833V101.833H20.1666H100.833Z" fill="#BDBDBD" stroke="white" stroke-width="2"/>
<path opacity="0.3" d="M18 103H103V38H18V103ZM39.25 65.0833H55.1875V48.8333H65.8125V65.0833H81.75V75.9167H65.8125V92.1667H55.1875V75.9167H39.25V65.0833Z" fill="#2FCDFF"/>
<path d="M54.875 92H66.125V75.875H83V65.125H66.125V49H54.875V65.125H38V75.875H54.875V92Z" fill="#2FCDFF"/>
</svg>
