<svg width="18" height="18" viewBox="0 0 18 18" fill="none" xmlns="http://www.w3.org/2000/svg">
<path d="M16.5 0H0.6875C0.307227 0 0 0.307227 0 0.6875V16.5C0 16.8803 0.307227 17.1875 0.6875 17.1875H16.5C16.8803 17.1875 17.1875 16.8803 17.1875 16.5V0.6875C17.1875 0.307227 16.8803 0 16.5 0ZM15.6406 15.6406H1.54688V1.54688H15.6406V15.6406ZM4.89844 12.2676V13.9219C4.89844 14.0164 4.97578 14.0938 5.07031 14.0938H6.10156C6.19609 14.0938 6.27344 14.0164 6.27344 13.9219V12.2676C6.05645 12.3385 5.82656 12.375 5.58594 12.375C5.34531 12.375 5.11543 12.3363 4.89844 12.2676ZM6.27344 8.01367V3.26562C6.27344 3.17109 6.19609 3.09375 6.10156 3.09375H5.07031C4.97578 3.09375 4.89844 3.17109 4.89844 3.26562V8.01367C5.11543 7.94277 5.34531 7.90625 5.58594 7.90625C5.82656 7.90625 6.05645 7.94492 6.27344 8.01367ZM4.89844 12.2676C5.11543 12.3385 5.34531 12.375 5.58594 12.375C5.82656 12.375 6.05645 12.3363 6.27344 12.2676C7.17148 11.9775 7.82031 11.1354 7.82031 10.1406C7.82031 9.1459 7.17148 8.30371 6.27344 8.01367C6.05645 7.94277 5.82656 7.90625 5.58594 7.90625C5.34531 7.90625 5.11543 7.94492 4.89844 8.01367C4.00039 8.30371 3.35156 9.1459 3.35156 10.1406C3.35156 11.1354 4.00039 11.9775 4.89844 12.2676ZM4.90059 9.78184C4.90703 9.76894 4.91563 9.75605 4.92207 9.74316V9.74102L4.94785 9.70234C4.95 9.69805 4.95215 9.6959 4.9543 9.6916C4.96074 9.68086 4.96934 9.67227 4.97578 9.66152C4.97793 9.65938 4.98008 9.65508 4.98223 9.65293C4.99297 9.64004 5.00156 9.6293 5.0123 9.61856L5.01875 9.61211L5.04453 9.58633L5.05313 9.57773C5.06387 9.56699 5.07461 9.5584 5.0875 9.54766C5.10039 9.53691 5.11113 9.52832 5.12402 9.51973C5.12832 9.51758 5.13047 9.51543 5.13477 9.51328C5.14551 9.50684 5.1541 9.49824 5.16484 9.4918C5.16699 9.48965 5.17129 9.4875 5.17344 9.48535C5.18633 9.47676 5.19922 9.47031 5.21426 9.46172C5.21641 9.45957 5.2207 9.45957 5.22285 9.45742C5.23359 9.45098 5.24434 9.44668 5.25723 9.44024L5.27012 9.43379C5.28516 9.42734 5.29805 9.4209 5.31309 9.4166C5.32812 9.41016 5.34316 9.40586 5.3582 9.40156C5.3625 9.39941 5.3668 9.39942 5.37109 9.39727C5.38398 9.39297 5.39473 9.39082 5.40762 9.38867C5.41191 9.38867 5.41406 9.38652 5.41836 9.38652C5.4334 9.38223 5.45059 9.38008 5.46562 9.37793C5.46992 9.37793 5.47207 9.37793 5.47637 9.37578C5.48926 9.37363 5.50215 9.37363 5.51504 9.37148H5.52793C5.54512 9.37148 5.56016 9.36934 5.57734 9.36934C5.59453 9.36934 5.60957 9.36934 5.62676 9.37148H5.63965C5.65254 9.37148 5.66543 9.37363 5.67832 9.37578C5.68262 9.37578 5.68477 9.37578 5.68906 9.37793C5.7041 9.38008 5.72129 9.38223 5.73633 9.38652C5.74062 9.38652 5.74277 9.38867 5.74707 9.38867C5.75996 9.39082 5.77285 9.39512 5.78359 9.39727C5.78789 9.39942 5.79219 9.39941 5.79648 9.40156C5.81152 9.40586 5.82656 9.41016 5.8416 9.4166C5.85664 9.4209 5.86953 9.42734 5.88457 9.43379L5.89746 9.44024C5.9082 9.44453 5.92109 9.45098 5.93184 9.45742C5.93398 9.45957 5.93828 9.45957 5.94043 9.46172C5.95332 9.46816 5.96836 9.47676 5.98125 9.48535C5.9834 9.4875 5.9877 9.48965 5.98984 9.4918C6.00059 9.49824 6.01133 9.50469 6.01992 9.51328C6.02422 9.51543 6.02637 9.51758 6.03066 9.51973C6.04355 9.52832 6.05645 9.53906 6.06719 9.54766C6.07793 9.55625 6.09082 9.56699 6.10156 9.57773L6.11016 9.58633L6.13594 9.61211L6.14238 9.61856C6.15312 9.6293 6.16387 9.64219 6.17246 9.65293C6.17461 9.65508 6.17676 9.65938 6.17891 9.66152C6.1875 9.67012 6.19395 9.68086 6.20039 9.6916C6.20254 9.6959 6.20469 9.69805 6.20684 9.70234L6.23262 9.74102C6.23262 9.74102 6.23262 9.74316 6.23477 9.74316C6.3064 9.86337 6.34425 10.0007 6.34434 10.1406C6.34434 10.2695 6.31211 10.392 6.25625 10.4994C6.2498 10.5123 6.24121 10.5252 6.23477 10.5381C6.23477 10.5381 6.23477 10.5402 6.23262 10.5402L6.20684 10.5789C6.20469 10.5832 6.20254 10.5854 6.20039 10.5896C6.19395 10.6004 6.18535 10.609 6.17891 10.6197C6.17676 10.6219 6.17461 10.6262 6.17246 10.6283C6.16172 10.6412 6.15312 10.652 6.14238 10.6627L6.13594 10.6691L6.11016 10.6949L6.10156 10.7035C6.09082 10.7143 6.08008 10.7229 6.06719 10.7336C6.0543 10.7443 6.04355 10.7529 6.03066 10.7615C6.02637 10.7637 6.02422 10.7658 6.01992 10.768C6.00918 10.7744 6.00059 10.783 5.98984 10.7895C5.9877 10.7916 5.9834 10.7937 5.98125 10.7959C5.96836 10.8045 5.95547 10.8109 5.94043 10.8195C5.93828 10.8217 5.93398 10.8217 5.93184 10.8238C5.92109 10.8303 5.91035 10.8346 5.89746 10.841L5.88457 10.8475C5.86953 10.8539 5.85664 10.8604 5.8416 10.8646C5.82656 10.8711 5.81152 10.8754 5.79648 10.8797C5.79219 10.8818 5.78789 10.8818 5.78359 10.884C5.7707 10.8883 5.75996 10.8904 5.74707 10.8926C5.74277 10.8926 5.74062 10.8947 5.73633 10.8947C5.72129 10.899 5.7041 10.9012 5.68906 10.9033C5.68477 10.9033 5.68262 10.9033 5.67832 10.9055C5.66543 10.9076 5.65254 10.9076 5.63965 10.9098H5.62676C5.60957 10.9098 5.59453 10.9119 5.57734 10.9119C5.56016 10.9119 5.54512 10.9119 5.52793 10.9098H5.51504C5.50215 10.9098 5.48926 10.9076 5.47637 10.9055C5.47207 10.9055 5.46992 10.9055 5.46562 10.9033C5.45059 10.9012 5.4334 10.899 5.41836 10.8947C5.41406 10.8947 5.41191 10.8926 5.40762 10.8926C5.39473 10.8904 5.38184 10.8861 5.37109 10.884C5.3668 10.8818 5.3625 10.8818 5.3582 10.8797C5.34316 10.8754 5.32812 10.8711 5.31309 10.8646C5.29805 10.8604 5.28516 10.8539 5.27012 10.8475L5.25723 10.841C5.24648 10.8367 5.23359 10.8303 5.22285 10.8238C5.2207 10.8217 5.21641 10.8217 5.21426 10.8195C5.20137 10.8131 5.18633 10.8045 5.17344 10.7959C5.17129 10.7937 5.16699 10.7916 5.16484 10.7895C5.1541 10.783 5.14336 10.7766 5.13477 10.768C5.13047 10.7658 5.12832 10.7637 5.12402 10.7615C5.11113 10.7529 5.09824 10.7422 5.0875 10.7336C5.07676 10.725 5.06387 10.7143 5.05313 10.7035L5.04453 10.6949L5.01875 10.6691L5.0123 10.6627C5.00156 10.652 4.99082 10.6391 4.98223 10.6283C4.98008 10.6262 4.97793 10.6219 4.97578 10.6197C4.96719 10.6111 4.96074 10.6004 4.9543 10.5896C4.95215 10.5854 4.95 10.5832 4.94785 10.5789L4.92207 10.5402V10.5381C4.91348 10.5252 4.90703 10.5123 4.90059 10.4994C4.84473 10.392 4.8125 10.2695 4.8125 10.1406C4.8125 10.0117 4.84473 9.88926 4.90059 9.78184ZM10.9141 9.17383V13.9219C10.9141 14.0164 10.9914 14.0938 11.0859 14.0938H12.1172C12.2117 14.0938 12.2891 14.0164 12.2891 13.9219V9.17383C12.0721 9.24473 11.8422 9.28125 11.6016 9.28125C11.3609 9.28125 11.1311 9.24258 10.9141 9.17383ZM12.2891 4.91992V3.26562C12.2891 3.17109 12.2117 3.09375 12.1172 3.09375H11.0859C10.9914 3.09375 10.9141 3.17109 10.9141 3.26562V4.91992C11.1311 4.84902 11.3609 4.8125 11.6016 4.8125C11.8422 4.8125 12.0721 4.85117 12.2891 4.91992ZM10.9141 9.17383C11.1311 9.24473 11.3609 9.28125 11.6016 9.28125C11.8422 9.28125 12.0721 9.24258 12.2891 9.17383C13.1871 8.88379 13.8359 8.0416 13.8359 7.04688C13.8359 6.05215 13.1871 5.20996 12.2891 4.91992C12.0721 4.84902 11.8422 4.8125 11.6016 4.8125C11.3609 4.8125 11.1311 4.85117 10.9141 4.91992C10.016 5.20996 9.36719 6.05215 9.36719 7.04688C9.36719 8.0416 10.016 8.88379 10.9141 9.17383ZM10.9162 6.68809C10.9227 6.6752 10.9312 6.6623 10.9377 6.64941V6.64727L10.9635 6.60859C10.9656 6.6043 10.9678 6.60215 10.9699 6.59785C10.9764 6.58711 10.985 6.57852 10.9914 6.56777C10.9936 6.56563 10.9957 6.56133 10.9979 6.55918C11.0086 6.54629 11.0172 6.53555 11.0279 6.52481L11.0344 6.51836L11.0602 6.49258L11.0688 6.48398C11.0795 6.47324 11.0902 6.46465 11.1031 6.45391C11.116 6.44316 11.1268 6.43457 11.1396 6.42598C11.1439 6.42383 11.1461 6.42168 11.1504 6.41953C11.1611 6.41309 11.1697 6.40449 11.1805 6.39805C11.1826 6.3959 11.1869 6.39375 11.1891 6.3916C11.202 6.38301 11.2148 6.37656 11.2299 6.36797C11.232 6.36582 11.2363 6.36582 11.2385 6.36367C11.2492 6.35723 11.26 6.35293 11.2729 6.34648L11.2857 6.34004C11.3008 6.33359 11.3137 6.32715 11.3287 6.32285C11.3438 6.31641 11.3588 6.31211 11.3738 6.30781C11.3781 6.30566 11.3824 6.30566 11.3867 6.30352C11.3996 6.29922 11.4104 6.29707 11.4232 6.29492C11.4275 6.29492 11.4297 6.29277 11.434 6.29277C11.449 6.28848 11.4662 6.28633 11.4813 6.28418C11.4855 6.28418 11.4877 6.28418 11.492 6.28203C11.5049 6.27988 11.5178 6.27988 11.5307 6.27773H11.5436C11.5607 6.27773 11.5758 6.27559 11.593 6.27559C11.6102 6.27559 11.6252 6.27559 11.6424 6.27773H11.6553C11.6682 6.27773 11.6811 6.27988 11.6939 6.28203C11.6982 6.28203 11.7004 6.28203 11.7047 6.28418C11.7197 6.28633 11.7369 6.28848 11.752 6.29277C11.7563 6.29277 11.7584 6.29492 11.7627 6.29492C11.7756 6.29707 11.7885 6.30137 11.7992 6.30352C11.8035 6.30566 11.8078 6.30566 11.8121 6.30781C11.8271 6.31211 11.8422 6.31641 11.8572 6.32285C11.8723 6.32715 11.8852 6.33359 11.9002 6.34004L11.9131 6.34648C11.9238 6.35078 11.9367 6.35723 11.9475 6.36367C11.9496 6.36582 11.9539 6.36582 11.9561 6.36797C11.9689 6.37441 11.984 6.38301 11.9969 6.3916C11.999 6.39375 12.0033 6.3959 12.0055 6.39805C12.0162 6.40449 12.027 6.41094 12.0355 6.41953C12.0398 6.42168 12.042 6.42383 12.0463 6.42598C12.0592 6.43457 12.0721 6.44531 12.0828 6.45391C12.0936 6.4625 12.1064 6.47324 12.1172 6.48398L12.1258 6.49258L12.1516 6.51836L12.158 6.52481C12.1688 6.53555 12.1795 6.54844 12.1881 6.55918C12.1902 6.56133 12.1924 6.56563 12.1945 6.56777C12.2031 6.57637 12.2096 6.58711 12.216 6.59785C12.2182 6.60215 12.2203 6.6043 12.2225 6.60859L12.2482 6.64727V6.64941C12.3199 6.76962 12.3577 6.90694 12.3578 7.04688C12.3578 7.17578 12.3256 7.29824 12.2697 7.40566C12.2633 7.41855 12.2547 7.43145 12.2482 7.44434V7.44648L12.2225 7.48516C12.2203 7.48945 12.2182 7.4916 12.216 7.4959C12.2096 7.50664 12.201 7.51523 12.1945 7.52598C12.1924 7.52812 12.1902 7.53242 12.1881 7.53457C12.1773 7.54746 12.1688 7.5582 12.158 7.56894L12.1516 7.57539L12.1258 7.60117L12.1172 7.60977C12.1064 7.62051 12.0957 7.6291 12.0828 7.63984C12.0699 7.65059 12.0592 7.65918 12.0463 7.66777C12.042 7.66992 12.0398 7.67207 12.0355 7.67422C12.0248 7.68066 12.0162 7.68926 12.0055 7.6957C12.0033 7.69785 11.999 7.7 11.9969 7.70215C11.984 7.71074 11.9711 7.71719 11.9561 7.72578C11.9539 7.72793 11.9496 7.72793 11.9475 7.73008C11.9367 7.73652 11.926 7.74082 11.9131 7.74727L11.9002 7.75371C11.8852 7.76016 11.8723 7.7666 11.8572 7.7709C11.8422 7.77734 11.8271 7.78164 11.8121 7.78594C11.8078 7.78809 11.8035 7.78809 11.7992 7.79023C11.7863 7.79453 11.7756 7.79668 11.7627 7.79883C11.7584 7.79883 11.7563 7.80098 11.752 7.80098C11.7369 7.80527 11.7197 7.80742 11.7047 7.80957C11.7004 7.80957 11.6982 7.80957 11.6939 7.81172C11.6811 7.81387 11.6682 7.81387 11.6553 7.81602H11.6424C11.6252 7.81602 11.6102 7.81816 11.593 7.81816C11.5758 7.81816 11.5607 7.81816 11.5436 7.81602H11.5307C11.5178 7.81602 11.5049 7.81387 11.492 7.81172C11.4877 7.81172 11.4855 7.81172 11.4813 7.80957C11.4662 7.80742 11.449 7.80527 11.434 7.80098C11.4297 7.80098 11.4275 7.79883 11.4232 7.79883C11.4104 7.79668 11.3975 7.79238 11.3867 7.79023C11.3824 7.78809 11.3781 7.78809 11.3738 7.78594C11.3588 7.78164 11.3438 7.77734 11.3287 7.7709C11.3137 7.7666 11.3008 7.76016 11.2857 7.75371L11.2729 7.74727C11.2621 7.74297 11.2492 7.73652 11.2385 7.73008C11.2363 7.72793 11.232 7.72793 11.2299 7.72578C11.217 7.71934 11.202 7.71074 11.1891 7.70215C11.1869 7.7 11.1826 7.69785 11.1805 7.6957C11.1697 7.68926 11.159 7.68281 11.1504 7.67422C11.1461 7.67207 11.1439 7.66992 11.1396 7.66777C11.1268 7.65918 11.1139 7.64844 11.1031 7.63984C11.0924 7.63125 11.0795 7.62051 11.0688 7.60977L11.0602 7.60117L11.0344 7.57539L11.0279 7.56894C11.0172 7.5582 11.0064 7.54531 10.9979 7.53457C10.9957 7.53242 10.9936 7.52812 10.9914 7.52598C10.9828 7.51738 10.9764 7.50664 10.9699 7.4959C10.9678 7.4916 10.9656 7.48945 10.9635 7.48516L10.9377 7.44648V7.44434C10.9291 7.43145 10.9227 7.41855 10.9162 7.40566C10.8604 7.29824 10.8281 7.17578 10.8281 7.04688C10.8281 6.91797 10.8604 6.79551 10.9162 6.68809Z" fill="#8F3793"/>
</svg>
