<svg width="24" height="24" viewBox="0 0 24 24" fill="none" xmlns="http://www.w3.org/2000/svg">
<path d="M12 1.6665C6.12004 1.6665 1.33337 5.85317 1.33337 10.9998C1.33337 16.1465 6.12004 20.3332 12 20.3332C13.1001 20.3319 14.1948 20.1794 15.2534 19.8798L18.94 22.2265C19.0407 22.2911 19.1568 22.3274 19.2763 22.3316C19.3959 22.3359 19.5143 22.3079 19.6193 22.2507C19.7243 22.1934 19.8119 22.109 19.873 22.0062C19.9341 21.9034 19.9665 21.7861 19.9667 21.6665V17.1798C20.8009 16.3796 21.4665 15.4206 21.9245 14.3593C22.3825 13.2979 22.6235 12.1557 22.6334 10.9998C22.6667 5.85317 17.88 1.6665 12 1.6665ZM18.86 16.4065C18.793 16.4687 18.7395 16.5439 18.7028 16.6277C18.6661 16.7114 18.647 16.8018 18.6467 16.8932V20.4532L15.7267 18.5932C15.6453 18.5417 15.5536 18.5085 15.4581 18.4958C15.3626 18.4831 15.2654 18.4913 15.1734 18.5198C14.1459 18.839 13.076 19.0008 12 18.9998C6.85337 18.9998 2.66671 15.4132 2.66671 10.9998C2.66671 6.5865 6.85337 2.99984 12 2.99984C17.1467 2.99984 21.3334 6.5865 21.3334 10.9998C21.3182 12.0232 21.0905 13.0323 20.6647 13.963C20.2389 14.8937 19.6244 15.7258 18.86 16.4065Z" fill="#607BE4"/>
<path d="M12.0002 13.7535C12.177 13.7535 12.3466 13.6832 12.4716 13.5582C12.5966 13.4332 12.6668 13.2636 12.6668 13.0868V5.65348C12.6668 5.47667 12.5966 5.3071 12.4716 5.18208C12.3466 5.05705 12.177 4.98682 12.0002 4.98682C11.8234 4.98682 11.6538 5.05705 11.5288 5.18208C11.4037 5.3071 11.3335 5.47667 11.3335 5.65348V13.0735C11.3317 13.1621 11.3477 13.2503 11.3804 13.3327C11.4131 13.4151 11.4619 13.4902 11.524 13.5535C11.5861 13.6169 11.6602 13.6672 11.7419 13.7015C11.8237 13.7358 11.9115 13.7535 12.0002 13.7535Z" fill="#607BE4"/>
<path d="M11.9999 16.9135C12.4896 16.9135 12.8866 16.5165 12.8866 16.0268C12.8866 15.5371 12.4896 15.1401 11.9999 15.1401C11.5103 15.1401 11.1133 15.5371 11.1133 16.0268C11.1133 16.5165 11.5103 16.9135 11.9999 16.9135Z" fill="#607BE4"/>
</svg>
