<svg width="222" height="244" viewBox="0 0 222 244" fill="none" xmlns="http://www.w3.org/2000/svg">
<path d="M144 67H78C71.9249 67 67 71.9249 67 78V166C67 172.075 71.9249 177 78 177H144C150.075 177 155 172.075 155 166V78C155 71.9249 150.075 67 144 67Z" stroke="#3D3E64" stroke-width="4" stroke-linecap="round" stroke-linejoin="round"/>
<path d="M111 155H111.055" stroke="#3D3E64" stroke-width="10" stroke-linecap="round" stroke-linejoin="round"/>
<path d="M177.333 13.9583L163.375 27.9167L177.333 41.875" stroke="#3D3E64" stroke-width="2" stroke-linecap="round" stroke-linejoin="round"/>
<path d="M163.375 27.9167H185.708C201.127 27.9167 213.625 40.415 213.625 55.8334V58.625" stroke="#3D3E64" stroke-width="2" stroke-linecap="round" stroke-linejoin="round"/>
<path d="M44.6667 230.042L58.625 216.083L44.6667 202.125" stroke="#3D3E64" stroke-width="2" stroke-linecap="round" stroke-linejoin="round"/>
<path d="M58.625 216.083L36.2917 216.083C20.8733 216.083 8.375 203.585 8.375 188.167L8.375 185.375" stroke="#3D3E64" stroke-width="2" stroke-linecap="round" stroke-linejoin="round"/>
</svg>
