<svg width="17" height="17" viewBox="0 0 17 17" fill="none" xmlns="http://www.w3.org/2000/svg">
<path d="M16.8517 16.133L12.7204 12.0018C13.8286 10.7277 14.4996 9.06541 14.4996 7.24856C14.4996 3.24922 11.2466 0 7.251 0C3.25167 0 0.00244141 3.25299 0.00244141 7.24856C0.00244141 11.2441 3.25543 14.4971 7.251 14.4971C9.06785 14.4971 10.7302 13.8262 12.0042 12.718L16.1355 16.8492C16.2335 16.9472 16.3654 17 16.4936 17C16.6217 17 16.7537 16.951 16.8517 16.8492C17.0477 16.6532 17.0477 16.329 16.8517 16.133ZM1.01641 7.24856C1.01641 3.81087 3.81331 1.01774 7.24723 1.01774C10.6849 1.01774 13.4781 3.81463 13.4781 7.24856C13.4781 10.6825 10.6849 13.4831 7.24723 13.4831C3.81331 13.4831 1.01641 10.6863 1.01641 7.24856Z" fill="black"/>
</svg>
