<svg width="128" height="128" viewBox="0 0 128 128" fill="none" xmlns="http://www.w3.org/2000/svg">
<path d="M60.55 98.3C43.76 103.13 34.54 79.47 31.02 71.03C24 54.17 5.69001 42.41 7.04001 30C8.39001 17.59 23.64 18.83 23.64 18.83" stroke="#BDBDBD" stroke-width="6" stroke-miterlimit="10" stroke-linejoin="round"/>
<path d="M59.5 98.3C76.39 93.82 70.89 69.39 69.57 60.34C66.94 42.26 76.61 22.77 69.08 12.82C61.55 2.86998 49.1 11.76 49.1 11.76" stroke="#BDBDBD" stroke-width="6" stroke-miterlimit="10" stroke-linejoin="round"/>
<path d="M101.84 47.48C110.262 47.48 117.09 40.6523 117.09 32.23C117.09 23.8076 110.262 16.98 101.84 16.98C93.4176 16.98 86.59 23.8076 86.59 32.23C86.59 40.6523 93.4176 47.48 101.84 47.48Z" fill="#878787"/>
<path d="M102.38 44.54C109.786 44.54 115.79 38.5361 115.79 31.13C115.79 23.7238 109.786 17.72 102.38 17.72C94.9738 17.72 88.97 23.7238 88.97 31.13C88.97 38.5361 94.9738 44.54 102.38 44.54Z" fill="#BDBDBD"/>
<path d="M69.39 58.93C68.5 65.67 79.53 90.29 62.42 97.03C43.26 104.59 36.11 76.48 31.03 71.03" stroke="#2FCDFF" stroke-width="8" stroke-miterlimit="10"/>
<path d="M32.63 73.54C32.63 73.54 43.4 84.9 56.03 79.69C68 74.75 69.86 61.64 69.86 61.64" stroke="#2FCDFF" stroke-width="5" stroke-miterlimit="10"/>
<path opacity="0.22" d="M100.96 21.43C95.72 22.65 92.47 27.88 93.68 33.12C93.86 33.9 94.14 34.66 94.51 35.38L95.19 36.72C93.27 39.23 91.71 40.19 91.18 43.1C92.54 44.43 94.13 45.49 95.87 46.23C95.87 46.22 95.88 46.21 95.88 46.2C95.88 46.21 95.89 46.22 95.89 46.24C98.76 47.46 102.03 47.83 105.31 47.07C105.68 46.98 106.03 46.87 106.38 46.76L106.07 43.96C106.07 43.96 106.47 40.41 106.56 40.22C106.79 39.77 107.72 39.53 108.2 39.25C109.36 38.55 110.37 37.6 111.15 36.49C111.928 35.369 112.463 34.098 112.721 32.7583C112.979 31.4186 112.955 30.0398 112.65 28.71C111.43 23.47 106.19 20.21 100.96 21.43Z" fill="#212121"/>
<path d="M60.42 96.03C70.01 118 84.71 121.11 95.57 119.22C105.11 117.55 117.74 109 117.71 93.5C117.67 74.82 105.21 76 98.46 64.03C90.05 49.11 101.51 35.41 101.51 35.41" stroke="#2FCDFF" stroke-width="8" stroke-miterlimit="10"/>
<path opacity="0.22" d="M94.74 38.77C94.74 38.77 96.64 37.8 98.46 38.84C101.34 40.48 101.62 42.82 101.62 42.82C101.62 42.82 103.36 39.36 104.29 38.42C105.21 37.47 98.72 32.76 97.25 34.57C95.78 36.38 94.74 38.77 94.74 38.77Z" fill="#212121"/>
<path d="M27.83 14.04C26.33 14.05 25.01 14.77 24.14 15.86L22.9 14.88C21.77 13.99 20.11 14.8 20.12 16.24L20.16 21.43C20.17 22.87 21.84 23.66 22.95 22.75L24.16 21.77C25.04 22.86 26.38 23.57 27.89 23.56C30.52 23.54 32.64 21.39 32.62 18.76C32.6 16.13 30.46 14.02 27.83 14.04Z" fill="#616161"/>
<path d="M53.13 12.22L50.48 7.75999C49.74 6.51999 47.9 6.68999 47.4 8.02999L46.85 9.50999C45.54 9.01999 44.04 9.08999 42.75 9.85999C42.2118 10.1794 41.7419 10.6017 41.3671 11.1029C40.9923 11.6041 40.72 12.1742 40.5659 12.7808C40.4117 13.3873 40.3786 14.0182 40.4685 14.6376C40.5585 15.2569 40.7697 15.8524 41.09 16.39C41.4093 16.9282 41.8317 17.3981 42.3329 17.7729C42.8341 18.1477 43.4042 18.4199 44.0107 18.5741C44.6173 18.7283 45.2482 18.7614 45.8676 18.6714C46.4869 18.5815 47.0824 18.3703 47.62 18.05C48.92 17.28 49.7 15.98 49.89 14.59L51.43 14.8C52.85 14.99 53.87 13.46 53.13 12.22Z" fill="#616161"/>
<path d="M104.65 35.67C108.56 35.67 111.73 32.5002 111.73 28.59C111.73 24.6798 108.56 21.51 104.65 21.51C100.74 21.51 97.57 24.6798 97.57 28.59C97.57 32.5002 100.74 35.67 104.65 35.67Z" fill="#D1D1D1"/>
<path d="M42.37 15.11C41.54 13.92 41.7 11.7 43.13 10.69C44.56 9.67999 46.72 10.12 47.55 11.45C48.48 12.93 46.05 11.6 44.62 12.61C43.19 13.62 43.37 16.55 42.37 15.11Z" fill="#757575"/>
<path d="M25.01 17.25C25.37 15.84 27.14 14.51 28.84 14.93C30.54 15.35 31.62 17.26 31.16 18.76C30.65 20.43 30.06 17.72 28.36 17.31C26.67 16.89 24.58 18.95 25.01 17.25Z" fill="#757575"/>
</svg>
