<svg width="29" height="29" viewBox="0 0 29 29" fill="none" xmlns="http://www.w3.org/2000/svg">
<path d="M20.8438 7.25H8.15625C6.23343 7.25 4.38936 8.01384 3.02973 9.37348C1.67009 10.7331 0.90625 12.5772 0.90625 14.5C0.90625 16.4228 1.67009 18.2669 3.02973 19.6265C4.38936 20.9862 6.23343 21.75 8.15625 21.75H20.8438C22.7666 21.75 24.6106 20.9862 25.9703 19.6265C27.3299 18.2669 28.0938 16.4228 28.0938 14.5C28.0938 12.5772 27.3299 10.7331 25.9703 9.37348C24.6106 8.01384 22.7666 7.25 20.8438 7.25ZM20.8438 19.9375H8.15625C6.71414 19.9375 5.33109 19.3646 4.31136 18.3449C3.29163 17.3252 2.71875 15.9421 2.71875 14.5C2.71875 13.0579 3.29163 11.6748 4.31136 10.6551C5.33109 9.63538 6.71414 9.0625 8.15625 9.0625H20.8438C22.2859 9.0625 23.6689 9.63538 24.6886 10.6551C25.7084 11.6748 26.2812 13.0579 26.2812 14.5C26.2812 15.9421 25.7084 17.3252 24.6886 18.3449C23.6689 19.3646 22.2859 19.9375 20.8438 19.9375Z" fill="#42DEB4"/>
<path d="M20.8438 10.875C20.1268 10.875 19.4259 11.0876 18.8298 11.4859C18.2337 11.8842 17.7691 12.4504 17.4947 13.1128C17.2203 13.7752 17.1485 14.504 17.2884 15.2072C17.4283 15.9104 17.7735 16.5563 18.2805 17.0633C18.7875 17.5702 19.4334 17.9155 20.1365 18.0553C20.8397 18.1952 21.5686 18.1234 22.231 17.8491C22.8934 17.5747 23.4595 17.1101 23.8578 16.5139C24.2561 15.9178 24.4688 15.217 24.4688 14.5C24.4677 13.5389 24.0854 12.6175 23.4058 11.9379C22.7262 11.2583 21.8048 10.8761 20.8438 10.875ZM20.8438 16.3125C20.4853 16.3125 20.1348 16.2062 19.8368 16.007C19.5387 15.8079 19.3064 15.5248 19.1692 15.1936C19.032 14.8624 18.9961 14.498 19.0661 14.1464C19.136 13.7948 19.3086 13.4719 19.5621 13.2184C19.8156 12.9649 20.1386 12.7923 20.4902 12.7223C20.8417 12.6524 21.2062 12.6883 21.5374 12.8255C21.8686 12.9627 22.1516 13.195 22.3508 13.493C22.55 13.7911 22.6563 14.1415 22.6563 14.5C22.6557 14.9805 22.4646 15.4412 22.1248 15.781C21.785 16.1208 21.3243 16.312 20.8438 16.3125Z" fill="#42DEB4"/>
</svg>
